<svg width="357" height="380" viewBox="0 0 357 380" fill="none" xmlns="http://www.w3.org/2000/svg">
<mask id="mask0_2_179" style="mask-type:alpha" maskUnits="userSpaceOnUse" x="0" y="0" width="357" height="380">
<rect y="0.5" width="357" height="379" fill="#D9D9D9"/>
</mask>
<g mask="url(#mask0_2_179)">
<path style="mix-blend-mode:screen" d="M298.517 331.706C365.042 331.706 418.972 300.553 418.972 262.124C418.972 223.696 365.042 192.543 298.517 192.543C231.991 192.543 178.062 223.696 178.062 262.124C178.062 300.553 231.991 331.706 298.517 331.706Z" fill="url(#paint0_radial_2_179)"/>
<g style="mix-blend-mode:multiply" opacity="0.6">
<path d="M331.001 262.715L223.835 204.168L138.851 253.423L129.007 213.427L-0.832642 286.719L2.94079 288.919H99.0162L190.104 341.458C193.345 342.181 196.706 342.181 199.948 341.458L331.198 265.638C331.459 265.483 331.671 265.259 331.812 264.99C331.953 264.721 332.017 264.419 331.997 264.116C331.976 263.814 331.872 263.522 331.697 263.275C331.521 263.028 331.28 262.834 331.001 262.715Z" fill="#14417C"/>
</g>
<path d="M204.968 85.397C204.393 85.2708 203.792 85.377 203.295 85.6926L73.8817 160.462L74.8331 160.659L204.246 85.8896C204.743 85.574 205.345 85.4678 205.92 85.5941L204.968 85.397Z" fill="url(#paint1_linear_2_179)"/>
<path d="M101.28 281.597L72.8973 165.946L71.913 165.749L100.329 281.4C100.42 281.939 100.663 282.442 101.029 282.849C101.395 283.256 101.869 283.55 102.396 283.698L103.347 283.895C102.821 283.747 102.347 283.453 101.981 283.046C101.615 282.639 101.372 282.136 101.28 281.597Z" fill="#347BCE"/>
<path d="M74.8331 160.659L73.8816 160.462C73.0623 161.045 72.4368 161.86 72.0858 162.803C71.7348 163.745 71.6746 164.771 71.913 165.749L72.8973 165.946C72.6415 164.972 72.6898 163.943 73.0359 162.998C73.382 162.053 74.0092 161.237 74.8331 160.659Z" fill="url(#paint2_linear_2_179)"/>
<path d="M236.403 203.609L207.987 87.9911C207.495 85.9881 205.821 85.0687 204.246 85.9881L74.8331 160.757C74.0092 161.335 73.382 162.151 73.0359 163.097C72.6898 164.042 72.6415 165.071 72.8973 166.044L101.28 281.695C101.772 283.698 103.446 284.585 105.054 283.665L234.434 208.929C235.259 208.344 235.889 207.523 236.24 206.574C236.591 205.625 236.648 204.591 236.403 203.609Z" fill="#191B2A"/>
<path d="M230.824 194.678L204.968 89.3046L75.752 163.975L101.674 269.316L230.824 194.678Z" fill="#0F1412"/>
<path d="M103.839 282.024V285.701C103.873 286.055 104 286.394 104.208 286.682C104.415 286.971 104.696 287.199 105.021 287.343L195.879 339.882C196.762 340.334 197.741 340.57 198.733 340.57C199.726 340.57 200.704 340.334 201.588 339.882L330.148 265.113C330.47 264.979 330.749 264.757 330.952 264.472C331.155 264.188 331.274 263.852 331.296 263.504V259.892L103.839 282.024Z" fill="url(#paint3_linear_2_179)"/>
<path d="M330.017 258.118L239.159 205.58C238.275 205.127 237.297 204.891 236.304 204.891C235.311 204.891 234.333 205.127 233.449 205.58L104.922 280.316C104.583 280.436 104.288 280.658 104.08 280.952C103.872 281.246 103.76 281.597 103.76 281.958C103.76 282.318 103.872 282.67 104.08 282.964C104.288 283.258 104.583 283.48 104.922 283.6L195.78 336.139C196.675 336.574 197.657 336.8 198.652 336.8C199.646 336.8 200.628 336.574 201.523 336.139L330.05 261.369C331.625 260.515 331.592 259.038 330.017 258.118Z" fill="url(#paint4_linear_2_179)"/>
<path d="M224.983 221.604V221.177C224.965 221.027 224.997 220.874 225.074 220.743C225.151 220.613 225.269 220.511 225.41 220.455L231.415 217.007C231.742 216.829 232.109 216.735 232.481 216.735C232.854 216.735 233.22 216.829 233.548 217.007L238.601 219.929C238.929 220.126 239.06 220.389 238.994 220.619C239.01 220.655 239.018 220.694 239.018 220.734C239.018 220.773 239.01 220.812 238.994 220.849C239.012 220.879 239.021 220.913 239.021 220.947C239.021 220.982 239.012 221.016 238.994 221.046C239.021 221.193 238.996 221.345 238.925 221.476C238.853 221.608 238.739 221.711 238.601 221.768L232.563 225.249C232.237 225.411 231.877 225.495 231.513 225.495C231.149 225.495 230.79 225.411 230.463 225.249L225.41 222.294C225.272 222.243 225.155 222.148 225.078 222.022C225 221.897 224.967 221.75 224.983 221.604ZM235.09 216.744L240.143 219.667C240.469 219.829 240.829 219.913 241.193 219.913C241.557 219.913 241.917 219.829 242.243 219.667L248.281 216.186C248.419 216.128 248.533 216.025 248.604 215.894C248.676 215.763 248.701 215.611 248.674 215.463C248.692 215.433 248.7 215.4 248.7 215.365C248.7 215.33 248.692 215.296 248.674 215.266C248.692 215.231 248.701 215.191 248.701 215.152C248.701 215.112 248.692 215.072 248.674 215.037C248.674 214.807 248.674 214.544 248.281 214.347L243.227 211.425C242.9 211.246 242.534 211.153 242.161 211.153C241.788 211.153 241.422 211.246 241.095 211.425L235.09 214.872C234.955 214.928 234.841 215.024 234.765 215.148C234.688 215.272 234.652 215.417 234.663 215.562V215.989C234.637 216.145 234.665 216.305 234.743 216.442C234.821 216.579 234.943 216.686 235.09 216.744ZM215.665 227.941L220.718 230.864C221.039 231.042 221.4 231.136 221.768 231.136C222.135 231.136 222.497 231.042 222.818 230.864L228.855 227.416C228.993 227.359 229.108 227.256 229.179 227.124C229.251 226.993 229.275 226.841 229.249 226.694V226.267C229.274 226.124 229.248 225.977 229.176 225.851C229.104 225.725 228.991 225.629 228.855 225.577L223.802 222.655C223.475 222.477 223.108 222.383 222.736 222.383C222.363 222.383 221.997 222.477 221.669 222.655L215.665 225.938C215.524 225.995 215.406 226.097 215.329 226.227C215.252 226.358 215.22 226.51 215.238 226.661V227.088C215.197 227.257 215.221 227.436 215.306 227.589C215.392 227.741 215.531 227.855 215.698 227.909L215.665 227.941ZM142.558 290.528L147.644 293.451C147.97 293.613 148.33 293.697 148.694 293.697C149.058 293.697 149.418 293.613 149.744 293.451L155.749 289.97C155.89 289.913 156.007 289.812 156.085 289.681C156.162 289.551 156.194 289.398 156.176 289.248V288.985C156.194 288.834 156.162 288.682 156.085 288.551C156.007 288.421 155.89 288.319 155.749 288.263L150.696 285.34C150.37 285.178 150.01 285.094 149.646 285.094C149.282 285.094 148.922 285.178 148.596 285.34L142.558 288.821C142.23 289.018 142.099 289.281 142.164 289.51V289.937C142.175 290.061 142.221 290.179 142.297 290.278C142.372 290.377 142.474 290.452 142.591 290.495L142.558 290.528ZM163.788 257.856L168.841 260.811C169.167 260.973 169.527 261.057 169.891 261.057C170.255 261.057 170.615 260.973 170.941 260.811L176.979 257.33C177.117 257.273 177.231 257.17 177.303 257.038C177.374 256.907 177.399 256.755 177.372 256.608V256.148C177.372 255.918 177.372 255.656 176.979 255.459L171.893 252.536C171.571 252.358 171.21 252.264 170.843 252.264C170.475 252.264 170.114 252.358 169.793 252.536L163.821 256.148C163.68 256.205 163.562 256.306 163.485 256.437C163.408 256.568 163.376 256.72 163.394 256.871V257.298C163.411 257.416 163.46 257.527 163.535 257.619C163.61 257.712 163.709 257.782 163.821 257.823L163.788 257.856ZM183.213 246.658L188.266 249.581C188.592 249.743 188.952 249.827 189.316 249.827C189.68 249.827 190.04 249.743 190.366 249.581L196.404 246.1C196.542 246.043 196.656 245.94 196.728 245.808C196.799 245.677 196.824 245.525 196.798 245.378V244.984C196.824 244.836 196.799 244.685 196.728 244.553C196.656 244.422 196.542 244.319 196.404 244.261L191.318 241.339C190.996 241.161 190.635 241.067 190.268 241.067C189.9 241.067 189.539 241.161 189.218 241.339L183.213 244.82C183.078 244.875 182.964 244.971 182.888 245.095C182.811 245.219 182.776 245.364 182.786 245.509V245.936C182.778 246.085 182.818 246.233 182.901 246.358C182.984 246.482 183.105 246.576 183.246 246.626L183.213 246.658ZM202.638 235.428L207.691 238.351C208.018 238.513 208.377 238.597 208.741 238.597C209.105 238.597 209.465 238.513 209.791 238.351L218.946 233.064C219.084 233.006 219.198 232.904 219.27 232.772C219.341 232.641 219.366 232.489 219.34 232.342C219.357 232.312 219.366 232.278 219.366 232.243C219.366 232.208 219.357 232.175 219.34 232.145C219.357 232.115 219.366 232.081 219.366 232.046C219.366 232.011 219.357 231.978 219.34 231.948C219.366 231.8 219.341 231.648 219.27 231.517C219.198 231.386 219.084 231.283 218.946 231.225L213.893 228.303C213.561 228.14 213.196 228.056 212.827 228.056C212.457 228.056 212.092 228.14 211.76 228.303L202.638 233.589C202.497 233.646 202.38 233.748 202.302 233.878C202.225 234.009 202.193 234.161 202.211 234.312V234.706C202.203 234.855 202.243 235.003 202.326 235.127C202.409 235.252 202.53 235.346 202.671 235.395L202.638 235.428ZM192.794 241.043L197.848 243.966C198.174 244.128 198.533 244.212 198.897 244.212C199.262 244.212 199.621 244.128 199.947 243.966L205.985 240.485C206.123 240.428 206.237 240.325 206.309 240.193C206.38 240.062 206.405 239.91 206.379 239.763V239.369C206.405 239.221 206.38 239.069 206.309 238.938C206.237 238.807 206.123 238.704 205.985 238.646L200.932 235.724C200.6 235.561 200.235 235.477 199.866 235.477C199.496 235.477 199.131 235.561 198.799 235.724L192.794 239.204C192.66 239.26 192.546 239.356 192.469 239.48C192.392 239.604 192.357 239.749 192.368 239.894V240.321C192.366 240.488 192.425 240.65 192.534 240.777C192.642 240.904 192.793 240.987 192.958 241.011L192.794 241.043ZM173.369 252.274L178.422 255.196C178.749 255.358 179.108 255.442 179.472 255.442C179.837 255.442 180.196 255.358 180.522 255.196L186.56 251.715C186.698 251.658 186.812 251.555 186.884 251.423C186.955 251.292 186.98 251.14 186.954 250.993V250.566C186.954 250.336 186.954 250.073 186.56 249.876L181.474 246.954C181.153 246.776 180.791 246.682 180.424 246.682C180.057 246.682 179.695 246.776 179.374 246.954L173.369 250.435C173.231 250.485 173.114 250.581 173.037 250.706C172.96 250.831 172.926 250.978 172.943 251.124V251.551C172.941 251.718 173 251.88 173.109 252.007C173.217 252.134 173.368 252.217 173.533 252.241L173.369 252.274ZM214.68 238.679L219.734 241.602C220.061 241.78 220.427 241.873 220.8 241.873C221.173 241.873 221.539 241.78 221.866 241.602L227.871 238.121C228.006 238.07 228.12 237.973 228.192 237.847C228.263 237.721 228.289 237.574 228.265 237.431C228.282 237.395 228.291 237.356 228.291 237.316C228.291 237.277 228.282 237.237 228.265 237.201C228.282 237.172 228.291 237.138 228.291 237.103C228.291 237.068 228.282 237.034 228.265 237.004C228.291 236.857 228.267 236.705 228.195 236.574C228.123 236.442 228.009 236.34 227.871 236.282L222.818 233.36C222.486 233.197 222.121 233.113 221.751 233.113C221.382 233.113 221.017 233.197 220.685 233.36L214.68 236.84C214.54 236.897 214.422 236.998 214.345 237.129C214.267 237.26 214.236 237.412 214.254 237.563V237.99C214.26 238.151 214.322 238.305 214.43 238.425C214.538 238.545 214.685 238.623 214.844 238.646L214.68 238.679ZM136.98 283.6L142.033 286.522C142.36 286.684 142.719 286.769 143.083 286.769C143.448 286.769 143.807 286.684 144.133 286.522L150.171 283.042C150.309 282.984 150.423 282.881 150.495 282.75C150.566 282.618 150.591 282.466 150.564 282.319V281.925C150.591 281.778 150.566 281.626 150.495 281.494C150.423 281.363 150.309 281.26 150.171 281.203L145.085 278.28C144.764 278.102 144.402 278.008 144.035 278.008C143.667 278.008 143.306 278.102 142.985 278.28L136.98 281.761C136.845 281.816 136.731 281.912 136.655 282.036C136.578 282.16 136.543 282.305 136.553 282.451V282.877C136.552 283.044 136.611 283.206 136.719 283.333C136.828 283.46 136.979 283.543 137.144 283.567L136.98 283.6ZM204.968 244.196L210.021 247.118C210.342 247.296 210.704 247.39 211.071 247.39C211.438 247.39 211.8 247.296 212.121 247.118L218.159 243.637C218.487 243.44 218.618 243.178 218.552 242.948C218.568 242.912 218.576 242.872 218.576 242.833C218.576 242.793 218.568 242.754 218.552 242.718C218.57 242.688 218.579 242.654 218.579 242.62C218.579 242.585 218.57 242.551 218.552 242.521C218.579 242.374 218.554 242.222 218.482 242.09C218.411 241.959 218.297 241.856 218.159 241.799L213.105 238.876C212.773 238.714 212.408 238.629 212.039 238.629C211.669 238.629 211.305 238.714 210.973 238.876L204.968 242.357C204.827 242.413 204.709 242.515 204.632 242.646C204.555 242.776 204.523 242.929 204.541 243.079V243.473C204.527 243.564 204.532 243.656 204.554 243.745C204.576 243.834 204.616 243.918 204.671 243.991C204.726 244.065 204.795 244.127 204.874 244.173C204.953 244.219 205.041 244.249 205.132 244.261L204.968 244.196ZM195.124 249.811L200.177 252.733C200.503 252.895 200.863 252.98 201.227 252.98C201.591 252.98 201.951 252.895 202.277 252.733L208.315 249.252C208.643 249.055 208.774 248.793 208.709 248.563C208.726 248.527 208.735 248.488 208.735 248.448C208.735 248.408 208.726 248.369 208.709 248.333C208.726 248.303 208.735 248.269 208.735 248.235C208.735 248.2 208.726 248.166 208.709 248.136C208.735 247.989 208.71 247.837 208.639 247.705C208.567 247.574 208.453 247.471 208.315 247.414L203.262 244.491C202.929 244.329 202.565 244.244 202.195 244.244C201.825 244.244 201.461 244.329 201.129 244.491L195.124 247.972C194.983 248.029 194.866 248.13 194.788 248.261C194.711 248.391 194.679 248.544 194.697 248.694V249.088C194.683 249.19 194.691 249.293 194.721 249.391C194.751 249.489 194.802 249.578 194.871 249.654C194.94 249.729 195.025 249.789 195.12 249.827C195.215 249.865 195.317 249.882 195.419 249.876L195.124 249.811ZM185.28 255.426L190.333 258.348C190.66 258.51 191.019 258.595 191.383 258.595C191.748 258.595 192.107 258.51 192.433 258.348L198.471 254.868C198.609 254.81 198.723 254.707 198.795 254.576C198.866 254.444 198.891 254.293 198.865 254.145C198.882 254.115 198.891 254.081 198.891 254.047C198.891 254.012 198.882 253.978 198.865 253.948C198.882 253.918 198.891 253.884 198.891 253.85C198.891 253.815 198.882 253.781 198.865 253.751C198.891 253.604 198.866 253.452 198.795 253.321C198.723 253.189 198.609 253.086 198.471 253.029L193.418 250.106C193.086 249.944 192.721 249.859 192.351 249.859C191.982 249.859 191.617 249.944 191.285 250.106L185.871 253.653C185.73 253.709 185.612 253.811 185.535 253.941C185.458 254.072 185.426 254.224 185.444 254.375V254.769C185.426 254.92 185.458 255.072 185.535 255.203C185.612 255.333 185.73 255.435 185.871 255.491L185.28 255.426ZM146.43 277.886L151.483 280.809C151.81 280.971 152.169 281.055 152.533 281.055C152.898 281.055 153.257 280.971 153.583 280.809L159.621 277.328C159.759 277.27 159.873 277.167 159.945 277.036C160.016 276.905 160.041 276.753 160.015 276.606V276.211C160.041 276.064 160.016 275.912 159.945 275.781C159.873 275.65 159.759 275.547 159.621 275.489L154.535 272.567C154.209 272.405 153.849 272.32 153.485 272.32C153.121 272.32 152.761 272.405 152.435 272.567L146.43 276.047C146.295 276.102 146.181 276.199 146.105 276.323C146.028 276.447 145.993 276.592 146.003 276.737V277.164C145.983 277.278 145.992 277.395 146.029 277.505C146.066 277.614 146.13 277.713 146.215 277.792C146.3 277.87 146.403 277.926 146.515 277.954C146.627 277.982 146.745 277.981 146.857 277.952L146.43 277.886ZM156.274 272.271L161.327 275.194C161.653 275.356 162.013 275.44 162.377 275.44C162.741 275.44 163.101 275.356 163.427 275.194L169.465 271.713C169.603 271.655 169.717 271.552 169.789 271.421C169.86 271.29 169.885 271.138 169.858 270.99V270.596C169.885 270.449 169.86 270.297 169.789 270.166C169.717 270.035 169.603 269.931 169.465 269.874C162.016 265.572 164.543 265.638 156.34 270.432C156.199 270.489 156.081 270.59 156.004 270.721C155.927 270.852 155.895 271.004 155.913 271.155V271.549C155.899 271.644 155.906 271.742 155.932 271.835C155.958 271.928 156.004 272.015 156.066 272.089C156.127 272.163 156.204 272.224 156.291 272.267C156.378 272.309 156.473 272.333 156.569 272.337L156.274 272.271ZM166.118 266.656L171.171 269.578C171.497 269.74 171.857 269.825 172.221 269.825C172.585 269.825 172.944 269.74 173.271 269.578L179.308 266.098C179.446 266.04 179.561 265.937 179.632 265.806C179.704 265.675 179.729 265.523 179.702 265.375V264.981C179.729 264.834 179.704 264.682 179.632 264.551C179.561 264.419 179.446 264.316 179.308 264.259L174.255 261.336C173.923 261.174 173.558 261.09 173.189 261.09C172.819 261.09 172.454 261.174 172.122 261.336L166.183 264.883C166.043 264.94 165.925 265.041 165.848 265.172C165.771 265.302 165.739 265.455 165.757 265.605V265.999C165.739 266.15 165.771 266.302 165.848 266.433C165.925 266.563 166.043 266.665 166.183 266.722L166.118 266.656ZM175.961 261.041C180.916 263.898 181.769 264.751 183.115 263.963L189.152 260.483C189.29 260.425 189.405 260.322 189.476 260.191C189.548 260.059 189.572 259.908 189.546 259.76C189.563 259.73 189.572 259.696 189.572 259.662C189.572 259.627 189.563 259.593 189.546 259.563C189.563 259.533 189.572 259.499 189.572 259.465C189.572 259.43 189.563 259.396 189.546 259.366C189.572 259.219 189.548 259.067 189.476 258.936C189.405 258.804 189.29 258.701 189.152 258.644L184.099 255.721C183.767 255.559 183.402 255.474 183.033 255.474C182.663 255.474 182.298 255.559 181.966 255.721L176.027 259.432C175.887 259.489 175.769 259.59 175.691 259.721C175.614 259.851 175.582 260.004 175.601 260.154V260.548C175.615 260.671 175.662 260.788 175.738 260.886C175.813 260.984 175.913 261.06 176.027 261.107L175.961 261.041ZM158.636 298.048V297.621C158.663 297.474 158.638 297.322 158.567 297.19C158.495 297.059 158.381 296.956 158.243 296.899L153.157 293.976C152.83 293.814 152.471 293.73 152.107 293.73C151.742 293.73 151.383 293.814 151.057 293.976L141.902 299.263C141.764 299.32 141.65 299.423 141.578 299.555C141.506 299.686 141.482 299.838 141.508 299.985C141.491 300.015 141.482 300.049 141.482 300.084C141.482 300.118 141.491 300.152 141.508 300.182C141.491 300.212 141.482 300.246 141.482 300.281C141.482 300.315 141.491 300.349 141.508 300.379C141.482 300.527 141.506 300.679 141.578 300.81C141.65 300.941 141.764 301.044 141.902 301.102L146.955 304.024C147.282 304.202 147.649 304.296 148.022 304.296C148.394 304.296 148.761 304.202 149.088 304.024L158.243 298.738C158.604 298.606 158.735 298.343 158.669 298.114L158.636 298.048ZM146.463 294.764V294.37C146.481 294.22 146.449 294.067 146.372 293.937C146.295 293.806 146.177 293.705 146.036 293.648L140.983 290.725C140.662 290.547 140.301 290.454 139.933 290.454C139.566 290.454 139.205 290.547 138.883 290.725L132.846 294.206C132.518 294.403 132.386 294.666 132.452 294.896V295.552C132.425 295.7 132.45 295.852 132.522 295.983C132.593 296.114 132.708 296.217 132.846 296.275L137.932 299.197C138.258 299.359 138.617 299.444 138.982 299.444C139.346 299.444 139.705 299.359 140.032 299.197L146.036 295.716C146.126 295.69 146.209 295.646 146.281 295.587C146.354 295.528 146.413 295.455 146.456 295.372C146.499 295.289 146.525 295.198 146.531 295.105C146.538 295.012 146.526 294.918 146.496 294.83L146.463 294.764ZM154.075 263.372C161.36 267.608 158.833 267.707 167.201 262.847C167.339 262.789 167.453 262.686 167.525 262.555C167.596 262.424 167.621 262.272 167.594 262.125V261.698C167.619 261.555 167.593 261.408 167.521 261.282C167.449 261.156 167.336 261.059 167.201 261.008L162.115 258.086C161.793 257.907 161.432 257.814 161.065 257.814C160.697 257.814 160.336 257.907 160.015 258.086L154.01 261.534C153.869 261.59 153.751 261.692 153.674 261.822C153.597 261.953 153.565 262.105 153.583 262.256V262.716C153.571 262.879 153.617 263.041 153.713 263.173C153.809 263.306 153.949 263.4 154.108 263.438L154.075 263.372ZM255.795 241.963C255.812 241.927 255.821 241.888 255.821 241.848C255.821 241.808 255.812 241.769 255.795 241.733C255.812 241.703 255.821 241.669 255.821 241.634C255.821 241.6 255.812 241.566 255.795 241.536C255.821 241.389 255.796 241.237 255.725 241.105C255.653 240.974 255.539 240.871 255.401 240.813L250.348 237.891C250.016 237.729 249.651 237.644 249.281 237.644C248.912 237.644 248.547 237.729 248.215 237.891L242.21 241.372C242.072 241.429 241.958 241.532 241.886 241.664C241.815 241.795 241.79 241.947 241.816 242.094C241.799 242.124 241.79 242.158 241.79 242.193C241.79 242.227 241.799 242.261 241.816 242.291C241.799 242.321 241.79 242.355 241.79 242.39C241.79 242.424 241.799 242.458 241.816 242.488C241.79 242.635 241.815 242.787 241.886 242.919C241.958 243.05 242.072 243.153 242.21 243.211L247.263 246.133C247.591 246.311 247.957 246.405 248.33 246.405C248.702 246.405 249.069 246.311 249.396 246.133L255.401 242.652C255.795 242.521 255.926 242.258 255.86 242.028L255.795 241.963ZM140.95 287.934V287.507C140.95 287.277 140.95 287.015 140.557 286.818L135.471 283.895C135.149 283.717 134.788 283.624 134.421 283.624C134.053 283.624 133.692 283.717 133.371 283.895L124.216 289.182C123.888 289.379 123.757 289.642 123.822 289.872C123.805 289.907 123.796 289.947 123.796 289.986C123.796 290.026 123.805 290.066 123.822 290.101C123.805 290.131 123.796 290.165 123.796 290.2C123.796 290.235 123.805 290.268 123.822 290.298C123.796 290.446 123.82 290.598 123.892 290.729C123.964 290.86 124.078 290.963 124.216 291.021L129.269 293.943C129.601 294.106 129.966 294.19 130.336 294.19C130.705 294.19 131.07 294.106 131.402 293.943L140.557 288.657C140.713 288.611 140.847 288.508 140.932 288.368C141.017 288.228 141.047 288.062 141.016 287.901L140.95 287.934ZM144.232 269.086L149.285 272.008C149.606 272.187 149.967 272.28 150.335 272.28C150.702 272.28 151.064 272.187 151.385 272.008L157.422 268.528C157.558 268.476 157.671 268.38 157.743 268.254C157.815 268.128 157.841 267.981 157.816 267.838V267.411C157.843 267.264 157.818 267.112 157.746 266.981C157.675 266.849 157.56 266.746 157.422 266.689L152.337 263.766C152.01 263.604 151.651 263.52 151.286 263.52C150.922 263.52 150.563 263.604 150.236 263.766L144.232 267.247C144.091 267.304 143.973 267.405 143.896 267.536C143.819 267.666 143.787 267.819 143.805 267.969V268.396C143.811 268.558 143.874 268.712 143.982 268.832C144.089 268.952 144.236 269.03 144.396 269.053L144.232 269.086ZM134.388 274.701L139.474 277.623C139.795 277.802 140.156 277.895 140.524 277.895C140.891 277.895 141.253 277.802 141.574 277.623L147.611 274.143C147.74 274.083 147.847 273.984 147.917 273.86C147.988 273.737 148.019 273.595 148.005 273.453V273.026C148.021 272.88 147.991 272.733 147.921 272.603C147.851 272.474 147.743 272.37 147.611 272.304L142.525 269.381C142.199 269.219 141.84 269.135 141.475 269.135C141.111 269.135 140.752 269.219 140.426 269.381L134.388 272.862C134.257 272.928 134.149 273.033 134.078 273.162C134.008 273.291 133.979 273.438 133.994 273.585V273.979C134.001 274.154 134.072 274.32 134.193 274.447C134.313 274.574 134.476 274.652 134.65 274.668L134.388 274.701ZM128.58 284.552V284.158C128.596 284.012 128.566 283.864 128.496 283.735C128.426 283.606 128.318 283.502 128.186 283.436L123.1 280.513C122.774 280.351 122.415 280.267 122.05 280.267C121.686 280.267 121.327 280.351 121 280.513L114.963 283.994C114.832 284.06 114.723 284.164 114.653 284.293C114.583 284.423 114.554 284.57 114.569 284.716V285.11C114.554 285.256 114.583 285.404 114.653 285.533C114.723 285.662 114.832 285.767 114.963 285.833L120.246 288.985C120.572 289.147 120.931 289.231 121.296 289.231C121.66 289.231 122.019 289.147 122.346 288.985L128.383 285.504C128.559 285.444 128.705 285.318 128.791 285.153C128.876 284.988 128.895 284.796 128.843 284.618L128.58 284.552ZM124.675 280.218L129.761 283.14C130.088 283.302 130.447 283.386 130.811 283.386C131.176 283.386 131.535 283.302 131.861 283.14L137.899 279.659C138.028 279.599 138.134 279.5 138.205 279.377C138.275 279.254 138.306 279.111 138.293 278.97V278.543C138.308 278.397 138.279 278.249 138.209 278.12C138.138 277.991 138.03 277.887 137.899 277.821L132.813 274.898C132.487 274.736 132.127 274.652 131.763 274.652C131.399 274.652 131.039 274.736 130.713 274.898L124.675 278.379C124.544 278.445 124.436 278.549 124.366 278.678C124.295 278.807 124.266 278.955 124.282 279.101V279.495C124.273 279.59 124.282 279.686 124.311 279.777C124.339 279.868 124.385 279.953 124.446 280.026C124.507 280.099 124.582 280.16 124.666 280.204C124.751 280.248 124.843 280.275 124.938 280.283L124.675 280.218ZM284.309 235.527C284.335 235.379 284.31 235.228 284.239 235.096C284.167 234.965 284.053 234.862 283.915 234.804L278.862 231.882C278.535 231.704 278.168 231.61 277.795 231.61C277.423 231.61 277.056 231.704 276.729 231.882L270.724 235.363C270.589 235.418 270.476 235.514 270.399 235.638C270.322 235.762 270.287 235.907 270.298 236.052V236.446C270.279 236.597 270.311 236.749 270.389 236.88C270.466 237.01 270.584 237.112 270.724 237.169L275.777 240.091C276.104 240.253 276.463 240.337 276.827 240.337C277.192 240.337 277.551 240.253 277.877 240.091L283.915 236.61C284.053 236.553 284.167 236.45 284.239 236.319C284.31 236.187 284.335 236.035 284.309 235.888V235.494V235.527ZM245.82 246.461L240.766 243.539C240.434 243.376 240.07 243.292 239.7 243.292C239.33 243.292 238.966 243.376 238.634 243.539L232.629 247.02C232.488 247.076 232.37 247.178 232.293 247.308C232.216 247.439 232.184 247.591 232.202 247.742V248.136C232.184 248.287 232.216 248.439 232.293 248.57C232.37 248.7 232.488 248.802 232.629 248.858L237.682 251.781C238.008 251.943 238.368 252.027 238.732 252.027C239.096 252.027 239.456 251.943 239.782 251.781L245.82 248.3C245.958 248.243 246.072 248.14 246.143 248.008C246.215 247.877 246.24 247.725 246.213 247.578C246.231 247.548 246.24 247.514 246.24 247.479C246.24 247.445 246.231 247.411 246.213 247.381C246.231 247.351 246.24 247.317 246.24 247.282C246.24 247.248 246.231 247.214 246.213 247.184C246.233 247.019 246.19 246.853 246.092 246.719C245.995 246.586 245.851 246.493 245.688 246.461H245.82ZM265.31 235.264L260.257 232.342C259.925 232.179 259.56 232.095 259.191 232.095C258.821 232.095 258.456 232.179 258.124 232.342L252.12 235.822C251.981 235.88 251.867 235.983 251.795 236.114C251.724 236.245 251.699 236.397 251.726 236.545C251.709 236.575 251.699 236.609 251.699 236.643C251.699 236.678 251.709 236.712 251.726 236.742C251.708 236.778 251.699 236.817 251.699 236.857C251.699 236.896 251.708 236.936 251.726 236.972C251.726 237.201 251.726 237.464 252.12 237.661L257.173 240.584C257.5 240.762 257.866 240.855 258.239 240.855C258.612 240.855 258.978 240.762 259.305 240.584L265.31 237.103C265.45 237.057 265.567 236.962 265.64 236.834C265.713 236.707 265.736 236.557 265.704 236.413C265.721 236.378 265.73 236.338 265.73 236.298C265.73 236.259 265.721 236.219 265.704 236.184C265.721 236.154 265.73 236.12 265.73 236.085C265.73 236.05 265.721 236.016 265.704 235.986C265.724 235.822 265.68 235.656 265.583 235.522C265.486 235.388 265.341 235.296 265.179 235.264H265.31ZM226.394 257.692L221.341 254.769C221.009 254.607 220.644 254.522 220.275 254.522C219.905 254.522 219.54 254.607 219.208 254.769L213.204 258.25C213.069 258.305 212.955 258.401 212.878 258.525C212.802 258.649 212.766 258.794 212.777 258.939V259.432C212.759 259.583 212.791 259.735 212.868 259.866C212.945 259.996 213.063 260.098 213.204 260.154L218.257 263.077C218.583 263.239 218.943 263.323 219.307 263.323C219.671 263.323 220.031 263.239 220.357 263.077L226.394 259.596C226.532 259.539 226.647 259.436 226.718 259.304C226.79 259.173 226.815 259.021 226.788 258.874V258.48C226.807 258.393 226.809 258.304 226.792 258.217C226.776 258.13 226.742 258.047 226.693 257.974C226.644 257.9 226.581 257.837 226.507 257.789C226.433 257.74 226.35 257.707 226.263 257.692H226.394ZM261.34 230.93C261.323 230.96 261.313 230.994 261.313 231.028C261.313 231.063 261.323 231.097 261.34 231.127C261.322 231.162 261.313 231.202 261.313 231.242C261.313 231.281 261.322 231.321 261.34 231.357C261.34 231.586 261.34 231.849 261.734 232.046L266.787 234.968C267.114 235.147 267.481 235.24 267.853 235.24C268.226 235.24 268.592 235.147 268.92 234.968L274.924 231.521C275.062 231.463 275.177 231.36 275.248 231.229C275.32 231.097 275.344 230.946 275.318 230.798C275.335 230.768 275.344 230.734 275.344 230.7C275.344 230.665 275.335 230.631 275.318 230.601C275.335 230.565 275.344 230.526 275.344 230.486C275.344 230.446 275.335 230.407 275.318 230.371C275.318 230.141 275.318 229.879 274.924 229.682L269.871 226.759C269.544 226.581 269.177 226.488 268.805 226.488C268.432 226.488 268.066 226.581 267.738 226.759L261.734 230.207C261.596 230.265 261.481 230.368 261.41 230.499C261.338 230.63 261.313 230.782 261.34 230.93ZM187.446 280.185L182.36 277.229C182.034 277.067 181.674 276.983 181.31 276.983C180.946 276.983 180.586 277.067 180.26 277.229L174.255 280.71C174.115 280.767 173.997 280.868 173.919 280.999C173.842 281.13 173.811 281.282 173.829 281.433V281.859C173.818 282.005 173.853 282.15 173.93 282.274C174.006 282.398 174.121 282.494 174.255 282.549L179.308 285.471C179.63 285.65 179.991 285.743 180.358 285.743C180.726 285.743 181.087 285.65 181.408 285.471L187.446 282.024C187.584 281.966 187.698 281.863 187.77 281.732C187.841 281.6 187.866 281.448 187.84 281.301V280.874C187.859 280.799 187.864 280.72 187.853 280.643C187.842 280.566 187.816 280.491 187.777 280.424C187.737 280.357 187.684 280.298 187.622 280.252C187.56 280.205 187.489 280.171 187.413 280.152L187.446 280.185ZM206.871 268.955L201.785 266.032C201.464 265.854 201.102 265.76 200.735 265.76C200.368 265.76 200.006 265.854 199.685 266.032L193.68 269.513C193.542 269.563 193.425 269.659 193.348 269.784C193.271 269.909 193.237 270.056 193.254 270.202V270.629C193.236 270.78 193.268 270.932 193.345 271.063C193.422 271.193 193.54 271.295 193.68 271.352L198.733 274.274C199.06 274.436 199.419 274.521 199.783 274.521C200.148 274.521 200.507 274.436 200.833 274.274L206.871 270.793C207.009 270.736 207.123 270.633 207.195 270.502C207.266 270.37 207.291 270.218 207.265 270.071V269.644C207.298 269.283 207.166 269.283 206.838 268.922L206.871 268.955ZM197.027 274.57L191.941 271.647C191.62 271.469 191.259 271.375 190.891 271.375C190.524 271.375 190.163 271.469 189.841 271.647L183.837 275.095C183.696 275.152 183.578 275.253 183.501 275.384C183.424 275.514 183.392 275.667 183.41 275.817V276.244C183.394 276.39 183.427 276.538 183.504 276.663C183.581 276.788 183.699 276.883 183.837 276.934L188.89 279.856C189.211 280.035 189.572 280.128 189.94 280.128C190.307 280.128 190.668 280.035 190.99 279.856L197.027 276.573C197.165 276.515 197.279 276.412 197.351 276.281C197.423 276.15 197.447 275.998 197.421 275.85V275.423C197.585 274.997 197.454 274.734 197.126 274.537L197.027 274.57ZM177.701 285.701L172.615 282.779C172.288 282.617 171.929 282.532 171.565 282.532C171.2 282.532 170.841 282.617 170.515 282.779L164.51 286.26C164.369 286.316 164.251 286.418 164.174 286.548C164.097 286.679 164.065 286.831 164.083 286.982V287.409C164.072 287.554 164.108 287.699 164.185 287.823C164.261 287.947 164.375 288.043 164.51 288.098L169.563 291.021C169.884 291.199 170.246 291.293 170.613 291.293C170.98 291.293 171.342 291.199 171.663 291.021L177.701 287.54C178.029 287.343 178.16 287.08 178.094 286.851V286.424C178.121 286.276 178.096 286.124 178.024 285.993C177.953 285.862 177.839 285.759 177.701 285.701ZM167.857 291.316L162.771 288.394C162.445 288.232 162.085 288.148 161.721 288.148C161.357 288.148 160.997 288.232 160.671 288.394L154.666 291.875C154.525 291.931 154.408 292.033 154.33 292.163C154.253 292.294 154.221 292.446 154.239 292.597V292.991C154.221 293.142 154.253 293.294 154.33 293.425C154.408 293.555 154.525 293.657 154.666 293.713L159.719 296.636C160.041 296.814 160.402 296.908 160.769 296.908C161.137 296.908 161.498 296.814 161.819 296.636L167.857 293.155C168.185 292.958 168.316 292.696 168.251 292.466V292.039C168.281 291.911 168.272 291.777 168.225 291.654C168.178 291.531 168.096 291.425 167.988 291.349L167.857 291.316ZM216.419 263.274L211.366 260.351C211.039 260.173 210.672 260.08 210.3 260.08C209.927 260.08 209.561 260.173 209.233 260.351L203.229 263.832C203.094 263.887 202.98 263.984 202.903 264.107C202.827 264.231 202.791 264.376 202.802 264.522V264.948C202.784 265.099 202.816 265.251 202.893 265.382C202.97 265.513 203.088 265.614 203.229 265.671L208.282 268.593C208.608 268.755 208.968 268.84 209.332 268.84C209.696 268.84 210.055 268.755 210.382 268.593L216.419 265.113C216.557 265.055 216.672 264.952 216.743 264.821C216.815 264.689 216.84 264.538 216.813 264.39V263.996C216.843 263.868 216.835 263.734 216.788 263.611C216.741 263.488 216.658 263.382 216.551 263.307L216.419 263.274ZM235.844 252.044L230.791 249.121C230.459 248.959 230.094 248.874 229.725 248.874C229.355 248.874 228.99 248.959 228.658 249.121L222.654 252.602C222.513 252.659 222.395 252.76 222.318 252.891C222.241 253.021 222.209 253.174 222.227 253.324V253.718C222.209 253.869 222.241 254.021 222.318 254.152C222.395 254.283 222.513 254.384 222.654 254.441L227.707 257.363C228.033 257.525 228.393 257.609 228.757 257.609C229.121 257.609 229.481 257.525 229.807 257.363L235.844 253.882C235.982 253.825 236.097 253.722 236.168 253.591C236.24 253.459 236.265 253.307 236.238 253.16C236.255 253.13 236.265 253.096 236.265 253.062C236.265 253.027 236.255 252.993 236.238 252.963C236.255 252.933 236.265 252.899 236.265 252.865C236.265 252.83 236.255 252.796 236.238 252.766C236.268 252.638 236.26 252.504 236.213 252.381C236.166 252.258 236.084 252.152 235.976 252.077L235.844 252.044ZM182.983 292.63L177.93 289.707C177.604 289.545 177.245 289.461 176.88 289.461C176.516 289.461 176.157 289.545 175.83 289.707L169.793 293.188C169.465 293.385 169.333 293.648 169.399 293.878C169.381 293.913 169.372 293.953 169.372 293.993C169.372 294.032 169.381 294.072 169.399 294.108C169.382 294.137 169.373 294.171 169.373 294.206C169.373 294.241 169.382 294.275 169.399 294.305C169.372 294.452 169.397 294.604 169.469 294.735C169.54 294.867 169.655 294.969 169.793 295.027L174.846 297.949C175.178 298.112 175.543 298.196 175.912 298.196C176.282 298.196 176.647 298.112 176.979 297.949L182.983 294.469C183.124 294.412 183.242 294.311 183.319 294.18C183.396 294.049 183.428 293.897 183.41 293.746V293.352C183.432 293.221 183.417 293.086 183.364 292.964C183.312 292.841 183.225 292.737 183.115 292.663L182.983 292.63ZM192.827 287.015L187.774 284.092C187.448 283.93 187.088 283.846 186.724 283.846C186.36 283.846 186 283.93 185.674 284.092L179.636 287.573C179.498 287.631 179.384 287.733 179.313 287.865C179.241 287.996 179.216 288.148 179.243 288.295V288.689C179.216 288.837 179.241 288.989 179.313 289.12C179.384 289.251 179.498 289.354 179.636 289.412L184.69 292.334C185.022 292.497 185.387 292.581 185.756 292.581C186.126 292.581 186.49 292.497 186.822 292.334L192.827 288.854C192.968 288.797 193.086 288.695 193.163 288.565C193.24 288.434 193.272 288.282 193.254 288.131V287.737C193.265 287.592 193.229 287.447 193.152 287.323C193.076 287.199 192.962 287.103 192.827 287.048V287.015ZM173.402 298.245L168.349 295.322C168.028 295.144 167.666 295.051 167.299 295.051C166.932 295.051 166.57 295.144 166.249 295.322L160.211 298.836C159.883 299.033 159.752 299.296 159.818 299.526C159.802 299.562 159.794 299.601 159.794 299.64C159.794 299.68 159.802 299.719 159.818 299.755C159.8 299.785 159.791 299.819 159.791 299.854C159.791 299.889 159.8 299.923 159.818 299.952C159.791 300.1 159.816 300.252 159.888 300.383C159.959 300.514 160.073 300.617 160.211 300.675L165.264 303.597C165.597 303.76 165.961 303.844 166.331 303.844C166.701 303.844 167.065 303.76 167.397 303.597L173.402 300.117C173.543 300.06 173.661 299.958 173.738 299.828C173.815 299.697 173.847 299.545 173.829 299.394V299C173.847 298.85 173.815 298.697 173.738 298.567C173.661 298.436 173.543 298.334 173.402 298.278V298.245ZM163.558 303.86L158.505 300.938C158.184 300.759 157.823 300.666 157.455 300.666C157.088 300.666 156.727 300.759 156.405 300.938L150.368 304.418C150.232 304.47 150.119 304.566 150.047 304.692C149.975 304.818 149.949 304.965 149.974 305.108C149.956 305.144 149.947 305.183 149.947 305.223C149.947 305.263 149.956 305.302 149.974 305.338C149.957 305.368 149.947 305.402 149.947 305.436C149.947 305.471 149.957 305.505 149.974 305.535C149.947 305.682 149.972 305.834 150.044 305.965C150.115 306.097 150.23 306.2 150.368 306.257L155.421 309.18C155.753 309.342 156.118 309.426 156.487 309.426C156.857 309.426 157.222 309.342 157.554 309.18L163.558 305.699C163.699 305.642 163.817 305.541 163.894 305.41C163.971 305.279 164.003 305.127 163.985 304.976V304.55C164.001 304.424 163.982 304.295 163.93 304.18C163.878 304.064 163.794 303.965 163.69 303.893L163.558 303.86ZM236.501 241.47L231.448 238.548C231.116 238.385 230.751 238.301 230.381 238.301C230.012 238.301 229.647 238.385 229.315 238.548L220.193 243.834C220.052 243.891 219.934 243.993 219.857 244.123C219.78 244.254 219.748 244.406 219.766 244.557V244.984C219.756 245.129 219.791 245.274 219.867 245.398C219.944 245.522 220.058 245.618 220.193 245.673L225.246 248.596C225.567 248.774 225.929 248.868 226.296 248.868C226.663 248.868 227.025 248.774 227.346 248.596L236.501 243.309C236.636 243.258 236.749 243.161 236.821 243.035C236.893 242.909 236.919 242.762 236.894 242.62C236.912 242.584 236.921 242.544 236.921 242.505C236.921 242.465 236.912 242.425 236.894 242.39C236.912 242.36 236.921 242.326 236.921 242.291C236.921 242.257 236.912 242.223 236.894 242.193C236.957 242.047 236.965 241.884 236.917 241.733C236.868 241.582 236.767 241.454 236.632 241.372L236.501 241.47ZM254.056 251.682L249.002 248.76C248.67 248.598 248.305 248.513 247.936 248.513C247.566 248.513 247.202 248.598 246.87 248.76L237.748 254.047C237.607 254.103 237.489 254.205 237.412 254.335C237.335 254.466 237.303 254.618 237.321 254.769V255.196C237.31 255.341 237.346 255.486 237.422 255.61C237.499 255.734 237.613 255.83 237.748 255.886L242.801 258.808C243.122 258.986 243.483 259.08 243.851 259.08C244.218 259.08 244.579 258.986 244.901 258.808L254.056 253.521C254.384 253.324 254.515 253.062 254.449 252.832C254.467 252.796 254.476 252.757 254.476 252.717C254.476 252.677 254.467 252.638 254.449 252.602C254.467 252.572 254.476 252.538 254.476 252.503C254.476 252.469 254.467 252.435 254.449 252.405C254.512 252.259 254.52 252.096 254.471 251.945C254.423 251.794 254.322 251.666 254.187 251.584L254.056 251.682ZM273.94 240.518L268.854 237.595C268.533 237.417 268.171 237.324 267.804 237.324C267.436 237.324 267.075 237.417 266.754 237.595L260.749 241.076C260.614 241.131 260.501 241.228 260.424 241.352C260.347 241.475 260.312 241.62 260.323 241.766V242.193C260.304 242.343 260.336 242.496 260.414 242.626C260.491 242.757 260.609 242.858 260.749 242.915L265.802 245.837C266.129 245.999 266.488 246.084 266.852 246.084C267.217 246.084 267.576 245.999 267.902 245.837L273.94 242.357C274.078 242.299 274.192 242.196 274.264 242.065C274.335 241.934 274.36 241.782 274.334 241.634V241.208C274.465 240.879 274.465 240.616 274.071 240.419L273.94 240.518ZM264.096 246.133L259.01 243.211C258.689 243.032 258.327 242.939 257.96 242.939C257.593 242.939 257.232 243.032 256.91 243.211L250.905 246.658C250.765 246.715 250.647 246.817 250.57 246.947C250.493 247.078 250.461 247.23 250.479 247.381V247.808C250.463 247.954 250.496 248.101 250.573 248.226C250.65 248.351 250.767 248.447 250.905 248.497L255.959 251.453C256.285 251.615 256.644 251.699 257.009 251.699C257.373 251.699 257.732 251.615 258.059 251.453L264.096 247.972C264.234 247.914 264.348 247.811 264.42 247.68C264.492 247.549 264.516 247.397 264.49 247.249V246.823C264.818 246.494 264.621 246.297 264.359 246.035L264.096 246.133ZM241.652 259.005L236.599 256.083C236.278 255.904 235.917 255.811 235.549 255.811C235.182 255.811 234.82 255.904 234.499 256.083L189.513 282.056C189.372 282.113 189.254 282.215 189.177 282.345C189.1 282.476 189.068 282.628 189.086 282.779V283.173C189.068 283.324 189.1 283.476 189.177 283.607C189.254 283.737 189.372 283.839 189.513 283.895L194.566 286.818C194.888 286.996 195.249 287.09 195.616 287.09C195.984 287.09 196.345 286.996 196.666 286.818L241.652 260.844C241.793 260.787 241.911 260.686 241.988 260.555C242.065 260.424 242.097 260.272 242.079 260.121V259.695C242.09 259.549 242.054 259.404 241.978 259.28C241.901 259.157 241.787 259.06 241.652 259.005ZM204.476 260.023L199.39 257.101C199.063 256.938 198.704 256.854 198.34 256.854C197.975 256.854 197.616 256.938 197.29 257.101L191.285 260.581C191.144 260.638 191.026 260.739 190.949 260.87C190.872 261.001 190.84 261.153 190.858 261.304V261.698C190.84 261.848 190.872 262.001 190.949 262.131C191.026 262.262 191.144 262.363 191.285 262.42L196.338 265.342C196.664 265.505 197.024 265.589 197.388 265.589C197.752 265.589 198.112 265.505 198.438 265.342L204.476 261.862C204.804 261.665 204.935 261.402 204.869 261.172V260.745C204.89 260.585 204.852 260.424 204.761 260.29C204.67 260.157 204.534 260.062 204.377 260.023H204.476ZM194.632 265.638L189.546 262.716C189.22 262.554 188.86 262.469 188.496 262.469C188.132 262.469 187.772 262.554 187.446 262.716L181.408 266.196C181.277 266.262 181.169 266.367 181.099 266.496C181.028 266.625 180.999 266.772 181.015 266.919V267.313C180.999 267.459 181.028 267.606 181.099 267.735C181.169 267.865 181.277 267.969 181.408 268.035L186.494 270.958C186.821 271.12 187.18 271.204 187.544 271.204C187.909 271.204 188.268 271.12 188.594 270.958L194.632 267.477C194.763 267.411 194.871 267.306 194.942 267.177C195.012 267.048 195.041 266.901 195.026 266.755V266.36C195.044 266.218 195.02 266.073 194.955 265.944C194.891 265.815 194.79 265.709 194.665 265.638H194.632ZM214.057 254.408L208.971 251.485C208.645 251.323 208.285 251.239 207.921 251.239C207.557 251.239 207.197 251.323 206.871 251.485L200.866 254.966C200.726 255.023 200.608 255.124 200.531 255.255C200.453 255.385 200.421 255.538 200.44 255.688V256.148C200.421 256.299 200.453 256.451 200.531 256.582C200.608 256.712 200.726 256.814 200.866 256.871L205.919 259.793C206.241 259.971 206.602 260.065 206.969 260.065C207.337 260.065 207.698 259.971 208.019 259.793L214.09 256.148C214.418 255.951 214.549 255.689 214.483 255.459V255.032C214.488 254.9 214.453 254.77 214.382 254.659C214.312 254.548 214.21 254.46 214.09 254.408H214.057ZM243.588 220.685V221.111C243.578 221.257 243.613 221.402 243.689 221.526C243.766 221.65 243.88 221.746 244.015 221.801L249.068 224.723C249.389 224.902 249.751 224.995 250.118 224.995C250.485 224.995 250.847 224.902 251.168 224.723L257.205 221.276C257.343 221.218 257.458 221.115 257.529 220.984C257.601 220.852 257.626 220.7 257.599 220.553V220.028C257.599 219.798 257.599 219.535 257.205 219.338L252.152 216.416C251.825 216.238 251.458 216.144 251.086 216.144C250.713 216.144 250.347 216.238 250.019 216.416L243.982 220.028C243.853 220.081 243.743 220.172 243.666 220.29C243.59 220.407 243.552 220.545 243.555 220.685H243.588ZM223.901 248.793L218.815 245.87C218.488 245.708 218.129 245.624 217.765 245.624C217.4 245.624 217.041 245.708 216.715 245.87L210.71 249.351C210.569 249.408 210.452 249.509 210.374 249.64C210.297 249.77 210.265 249.923 210.283 250.073V250.5C210.273 250.646 210.308 250.791 210.385 250.914C210.461 251.038 210.575 251.135 210.71 251.19L215.763 254.112C216.084 254.291 216.446 254.384 216.813 254.384C217.181 254.384 217.542 254.291 217.863 254.112L223.901 250.632C224.036 250.58 224.15 250.484 224.221 250.358C224.293 250.232 224.319 250.085 224.295 249.942V249.581C224.314 249.497 224.317 249.41 224.302 249.325C224.288 249.239 224.257 249.158 224.212 249.085C224.166 249.012 224.106 248.948 224.036 248.898C223.966 248.848 223.886 248.812 223.802 248.793H223.901ZM185.051 271.253L179.965 268.331C179.638 268.169 179.279 268.084 178.915 268.084C178.55 268.084 178.191 268.169 177.865 268.331L171.827 271.811C171.696 271.877 171.588 271.982 171.517 272.111C171.447 272.24 171.418 272.388 171.433 272.534V272.928C171.418 273.074 171.447 273.222 171.517 273.351C171.588 273.48 171.696 273.584 171.827 273.65L176.913 276.573C177.239 276.735 177.599 276.819 177.963 276.819C178.327 276.819 178.687 276.735 179.013 276.573L185.051 273.092C185.182 273.026 185.29 272.921 185.36 272.792C185.431 272.663 185.46 272.516 185.444 272.37V271.976C185.452 271.818 185.409 271.662 185.32 271.531C185.231 271.401 185.102 271.303 184.952 271.253H185.051ZM165.494 282.418L160.441 279.495C160.115 279.333 159.755 279.249 159.391 279.249C159.027 279.249 158.667 279.333 158.341 279.495L152.304 282.976C152.166 283.033 152.051 283.136 151.98 283.268C151.908 283.399 151.883 283.551 151.91 283.698V284.092C151.883 284.24 151.908 284.391 151.98 284.523C152.051 284.654 152.166 284.757 152.304 284.815L157.39 287.737C157.716 287.899 158.075 287.983 158.44 287.983C158.804 287.983 159.163 287.899 159.49 287.737L165.494 284.256C165.635 284.2 165.753 284.098 165.83 283.968C165.907 283.837 165.939 283.685 165.921 283.534V283.14C165.939 282.989 165.907 282.837 165.83 282.706C165.753 282.576 165.635 282.474 165.494 282.418ZM175.338 276.803L170.252 273.88C169.926 273.718 169.566 273.634 169.202 273.634C168.838 273.634 168.478 273.718 168.152 273.88L162.115 277.361C161.983 277.427 161.875 277.531 161.805 277.66C161.734 277.789 161.705 277.937 161.721 278.083V278.477C161.705 278.623 161.734 278.771 161.805 278.9C161.875 279.029 161.983 279.134 162.115 279.2L167.201 282.122C167.527 282.284 167.886 282.368 168.251 282.368C168.615 282.368 168.974 282.284 169.301 282.122L175.338 278.641C175.469 278.575 175.577 278.471 175.648 278.342C175.718 278.213 175.747 278.065 175.732 277.919V277.525C175.726 277.378 175.676 277.237 175.588 277.12C175.5 277.003 175.379 276.915 175.24 276.868L175.338 276.803Z" fill="#191B2A"/>
<path d="M128.449 284.454L122.411 287.934C122.085 288.096 121.726 288.181 121.361 288.181C120.997 288.181 120.638 288.096 120.311 287.934L115.225 285.012C115.105 284.962 115.002 284.878 114.93 284.77C114.857 284.662 114.819 284.535 114.819 284.404C114.819 284.274 114.857 284.147 114.93 284.039C115.002 283.93 115.105 283.846 115.225 283.797L121.263 280.316C121.589 280.154 121.949 280.07 122.313 280.07C122.677 280.07 123.037 280.154 123.363 280.316L128.449 283.239C128.569 283.288 128.672 283.372 128.745 283.48C128.817 283.589 128.856 283.716 128.856 283.846C128.856 283.976 128.817 284.104 128.745 284.212C128.672 284.32 128.569 284.404 128.449 284.454ZM138.293 277.624L133.207 274.701C132.88 274.539 132.521 274.455 132.157 274.455C131.792 274.455 131.433 274.539 131.107 274.701L125.069 278.182C124.949 278.231 124.846 278.315 124.774 278.423C124.701 278.532 124.662 278.659 124.662 278.789C124.662 278.919 124.701 279.047 124.774 279.155C124.846 279.263 124.949 279.347 125.069 279.397L130.09 282.418C130.411 282.596 130.772 282.689 131.14 282.689C131.507 282.689 131.868 282.596 132.19 282.418L138.227 278.937C138.401 278.928 138.565 278.851 138.681 278.721C138.798 278.592 138.859 278.422 138.85 278.247C138.842 278.073 138.764 277.91 138.635 277.793C138.506 277.676 138.336 277.615 138.162 277.624H138.293ZM148.136 272.008L143.051 269.086C142.724 268.924 142.365 268.84 142.001 268.84C141.636 268.84 141.277 268.924 140.951 269.086L134.651 272.567C134.53 272.616 134.427 272.7 134.355 272.808C134.282 272.917 134.244 273.044 134.244 273.174C134.244 273.304 134.282 273.432 134.355 273.54C134.427 273.648 134.53 273.732 134.651 273.782L139.736 276.704C140.058 276.882 140.419 276.976 140.786 276.976C141.154 276.976 141.515 276.882 141.837 276.704L147.874 273.223C147.994 273.174 148.097 273.09 148.17 272.982C148.242 272.873 148.281 272.746 148.281 272.616C148.281 272.486 148.242 272.358 148.17 272.25C148.097 272.142 147.994 272.058 147.874 272.008H148.136ZM157.98 266.393L152.894 263.471C152.568 263.309 152.209 263.224 151.844 263.224C151.48 263.224 151.121 263.309 150.794 263.471L144.79 266.952C144.653 266.984 144.531 267.061 144.443 267.171C144.356 267.282 144.308 267.418 144.308 267.559C144.308 267.7 144.356 267.836 144.443 267.947C144.531 268.057 144.653 268.134 144.79 268.167L149.843 271.089C150.164 271.267 150.525 271.361 150.893 271.361C151.26 271.361 151.621 271.267 151.943 271.089L157.98 267.641C158.097 267.556 158.185 267.436 158.23 267.299C158.276 267.162 158.277 267.013 158.233 266.875C158.189 266.737 158.103 266.616 157.987 266.53C157.871 266.443 157.731 266.396 157.587 266.393H157.98ZM167.824 260.778L162.738 257.856C162.412 257.694 162.052 257.609 161.688 257.609C161.324 257.609 160.964 257.694 160.638 257.856L154.633 261.336C154.043 261.698 154.043 262.223 154.633 262.551L159.687 265.474C160.008 265.652 160.369 265.746 160.737 265.746C161.104 265.746 161.465 265.652 161.786 265.474L167.824 262.19C168.011 262.121 168.163 261.979 168.246 261.798C168.329 261.616 168.337 261.409 168.267 261.222C168.197 261.034 168.056 260.882 167.875 260.799C167.693 260.716 167.486 260.709 167.299 260.778H167.824ZM177.668 255.163L172.582 252.241C172.256 252.079 171.896 251.994 171.532 251.994C171.168 251.994 170.808 252.079 170.482 252.241L164.477 255.721C163.886 256.083 163.886 256.608 164.477 256.969L169.53 259.892C169.857 260.054 170.216 260.138 170.58 260.138C170.945 260.138 171.304 260.054 171.63 259.892L177.668 256.411C177.833 256.324 177.957 256.175 178.012 255.996C178.068 255.817 178.05 255.624 177.963 255.459C177.876 255.293 177.727 255.169 177.548 255.114C177.37 255.058 177.177 255.076 177.012 255.163H177.668ZM187.512 249.581L182.426 246.658C182.104 246.48 181.743 246.387 181.376 246.387C181.008 246.387 180.647 246.48 180.326 246.658L174.321 250.106C173.73 250.467 173.73 250.993 174.321 251.354L179.374 254.277C179.7 254.439 180.06 254.523 180.424 254.523C180.788 254.523 181.148 254.439 181.474 254.277L187.512 250.796C187.591 250.744 187.66 250.677 187.714 250.599C187.768 250.52 187.806 250.432 187.825 250.339C187.845 250.246 187.847 250.15 187.829 250.057C187.812 249.963 187.777 249.874 187.725 249.794C187.673 249.715 187.606 249.646 187.528 249.592C187.45 249.538 187.362 249.5 187.269 249.48C187.176 249.46 187.08 249.459 186.986 249.476C186.893 249.494 186.804 249.529 186.724 249.581H187.512ZM197.355 243.966L192.269 241.043C191.948 240.865 191.587 240.772 191.219 240.772C190.852 240.772 190.491 240.865 190.169 241.043L184.165 244.491C183.574 244.852 183.574 245.378 184.165 245.739L189.218 248.661C189.544 248.823 189.904 248.908 190.268 248.908C190.632 248.908 190.991 248.823 191.318 248.661L197.355 245.181C197.516 245.059 197.622 244.878 197.65 244.678C197.678 244.478 197.625 244.275 197.503 244.114C197.443 244.034 197.367 243.967 197.281 243.916C197.195 243.866 197.1 243.832 197.001 243.819C196.801 243.791 196.598 243.844 196.437 243.966H197.355ZM207.199 238.351L202.146 235.428C201.819 235.25 201.452 235.157 201.08 235.157C200.707 235.157 200.34 235.25 200.013 235.428L194.008 238.909C193.871 238.941 193.75 239.019 193.662 239.129C193.575 239.239 193.527 239.376 193.527 239.516C193.527 239.657 193.575 239.794 193.662 239.904C193.75 240.014 193.871 240.092 194.008 240.124L199.062 243.046C199.388 243.208 199.747 243.293 200.112 243.293C200.476 243.293 200.835 243.208 201.162 243.046L207.199 239.566C207.279 239.497 207.344 239.413 207.391 239.318C207.439 239.224 207.467 239.121 207.475 239.016C207.482 238.911 207.469 238.805 207.436 238.705C207.403 238.605 207.35 238.513 207.281 238.433C207.212 238.353 207.128 238.288 207.034 238.24C206.94 238.193 206.837 238.165 206.732 238.157C206.627 238.15 206.522 238.163 206.422 238.196C206.321 238.229 206.229 238.282 206.149 238.351H207.199ZM220.029 230.93L214.976 228.007C214.648 227.829 214.282 227.736 213.909 227.736C213.537 227.736 213.17 227.829 212.843 228.007L202.671 233.163C202.534 233.195 202.412 233.272 202.325 233.382C202.237 233.493 202.19 233.629 202.19 233.77C202.19 233.911 202.237 234.047 202.325 234.158C202.412 234.268 202.534 234.345 202.671 234.377L207.724 237.3C208.05 237.462 208.41 237.546 208.774 237.546C209.138 237.546 209.498 237.462 209.824 237.3L218.979 232.013C219.074 231.959 219.154 231.88 219.209 231.785C219.264 231.689 219.293 231.581 219.293 231.471C219.293 231.361 219.264 231.253 219.209 231.158C219.154 231.063 219.074 230.984 218.979 230.93H220.029ZM256.517 240.616L251.463 237.694C251.131 237.532 250.766 237.447 250.397 237.447C250.027 237.447 249.663 237.532 249.331 237.694L243.326 241.175C243.189 241.207 243.067 241.284 242.979 241.395C242.892 241.505 242.844 241.641 242.844 241.782C242.844 241.923 242.892 242.059 242.979 242.17C243.067 242.28 243.189 242.358 243.326 242.39L248.379 245.312C248.706 245.49 249.073 245.584 249.445 245.584C249.818 245.584 250.185 245.49 250.512 245.312L256.517 241.831C256.057 241.503 256.057 240.978 255.467 240.616H256.517ZM266.36 235.001L261.307 232.079C260.975 231.916 260.61 231.832 260.241 231.832C259.871 231.832 259.506 231.916 259.174 232.079L253.17 235.56C253.033 235.592 252.911 235.669 252.823 235.779C252.736 235.89 252.688 236.026 252.688 236.167C252.688 236.308 252.736 236.444 252.823 236.555C252.911 236.665 253.033 236.742 253.17 236.775L258.223 239.697C258.55 239.875 258.917 239.969 259.289 239.969C259.662 239.969 260.028 239.875 260.356 239.697L266.36 236.249C265.77 235.888 265.77 235.363 265.179 235.001H266.36ZM276.204 229.386L271.151 226.464C270.819 226.301 270.454 226.217 270.084 226.217C269.715 226.217 269.35 226.301 269.018 226.464L261.701 229.879C261.11 230.24 261.11 230.765 261.701 231.094L266.754 234.049C267.086 234.212 267.451 234.296 267.82 234.296C268.19 234.296 268.555 234.212 268.887 234.049L274.892 230.568C275.482 230.273 275.482 229.879 274.892 229.386H276.204ZM265.671 245.805L260.585 242.882C260.259 242.72 259.9 242.636 259.535 242.636C259.171 242.636 258.812 242.72 258.485 242.882L251.168 246.297C250.577 246.658 250.577 247.184 251.168 247.545L256.221 250.467C256.548 250.629 256.907 250.714 257.271 250.714C257.636 250.714 257.995 250.629 258.321 250.467L264.359 246.987C264.477 246.931 264.577 246.843 264.647 246.732C264.717 246.622 264.754 246.494 264.754 246.363C264.754 246.232 264.717 246.104 264.647 245.993C264.577 245.883 264.477 245.795 264.359 245.739L265.671 245.805ZM275.515 240.222L270.429 237.3C270.108 237.122 269.746 237.028 269.379 237.028C269.012 237.028 268.65 237.122 268.329 237.3L262.324 240.748C261.734 241.109 261.734 241.634 262.324 241.996L267.378 244.918C267.704 245.08 268.063 245.164 268.427 245.164C268.792 245.164 269.151 245.08 269.477 244.918L275.515 241.437C275.599 241.342 275.664 241.232 275.705 241.112C275.746 240.992 275.764 240.866 275.756 240.739C275.748 240.612 275.716 240.489 275.66 240.375C275.605 240.261 275.528 240.159 275.433 240.075C275.338 239.991 275.228 239.926 275.108 239.885C274.988 239.843 274.862 239.826 274.735 239.833C274.609 239.841 274.485 239.874 274.371 239.929C274.257 239.984 274.155 240.062 274.071 240.157L275.515 240.222ZM285.359 234.607L280.306 231.685C279.978 231.507 279.612 231.413 279.239 231.413C278.867 231.413 278.5 231.507 278.173 231.685L272.168 235.133C271.577 235.494 271.577 236.019 272.168 236.381L277.221 239.303C277.548 239.465 277.907 239.549 278.271 239.549C278.635 239.549 278.995 239.465 279.321 239.303L285.359 235.822C285.528 235.613 285.608 235.345 285.58 235.078C285.553 234.81 285.42 234.564 285.211 234.394C285.002 234.224 284.734 234.144 284.467 234.172C284.199 234.2 283.954 234.333 283.784 234.542L285.359 234.607ZM142.197 286.588L137.112 283.633C136.785 283.471 136.426 283.386 136.061 283.386C135.697 283.386 135.338 283.471 135.011 283.633L124.282 288.985C123.691 289.346 123.691 289.872 124.282 290.233L129.335 293.155C129.667 293.318 130.032 293.402 130.401 293.402C130.771 293.402 131.136 293.318 131.468 293.155L140.622 287.869C141.18 287.376 141.18 286.851 140.622 286.522L142.197 286.588ZM152.041 280.973L146.955 278.05C146.634 277.872 146.273 277.779 145.905 277.779C145.538 277.779 145.177 277.872 144.855 278.05L138.85 281.498C138.26 281.859 138.26 282.385 138.85 282.746L143.904 285.668C144.23 285.83 144.589 285.915 144.954 285.915C145.318 285.915 145.677 285.83 146.004 285.668L152.041 282.188C152.211 281.961 152.284 281.677 152.244 281.397C152.204 281.116 152.054 280.864 151.828 280.694C151.602 280.524 151.317 280.451 151.037 280.491C150.757 280.531 150.505 280.681 150.335 280.907L152.041 280.973ZM161.885 275.358L156.799 272.435C156.478 272.257 156.116 272.163 155.749 272.163C155.382 272.163 155.02 272.257 154.699 272.435L146.857 275.85C146.266 276.179 146.266 276.704 146.857 277.065L151.91 279.988C152.236 280.15 152.596 280.234 152.96 280.234C153.324 280.234 153.684 280.15 154.01 279.988L160.047 276.507C160.184 276.475 160.307 276.397 160.394 276.287C160.481 276.177 160.529 276.04 160.529 275.9C160.529 275.759 160.481 275.622 160.394 275.512C160.307 275.402 160.184 275.324 160.047 275.292L161.885 275.358ZM171.729 269.743L166.676 266.82C166.348 266.642 165.982 266.549 165.609 266.549C165.237 266.549 164.87 266.642 164.543 266.82L158.538 270.301C158.401 270.333 158.279 270.41 158.192 270.521C158.104 270.631 158.057 270.768 158.057 270.908C158.057 271.049 158.104 271.186 158.192 271.296C158.279 271.406 158.401 271.484 158.538 271.516L163.591 274.438C163.918 274.6 164.277 274.685 164.641 274.685C165.006 274.685 165.365 274.6 165.691 274.438L171.729 270.958C171.898 270.696 171.957 270.378 171.893 270.073C171.828 269.769 171.645 269.502 171.384 269.332C171.123 269.162 170.805 269.103 170.501 269.168C170.196 269.233 169.93 269.416 169.76 269.677L171.729 269.743ZM181.573 264.128L176.519 261.205C176.187 261.043 175.823 260.958 175.453 260.958C175.083 260.958 174.719 261.043 174.387 261.205L166.183 264.62C166.046 264.652 165.924 264.73 165.837 264.84C165.75 264.95 165.702 265.087 165.702 265.228C165.702 265.368 165.75 265.505 165.837 265.615C165.924 265.726 166.046 265.803 166.183 265.835L171.236 268.758C171.563 268.92 171.922 269.004 172.287 269.004C172.651 269.004 173.01 268.92 173.337 268.758L179.374 265.277C179.515 265.258 179.645 265.191 179.743 265.088C179.841 264.984 179.9 264.851 179.912 264.709C179.923 264.567 179.886 264.426 179.806 264.308C179.726 264.19 179.608 264.103 179.472 264.062L181.573 264.128ZM191.416 258.512L186.363 255.59C186.031 255.428 185.666 255.343 185.297 255.343C184.927 255.343 184.562 255.428 184.23 255.59L176.027 259.005C175.89 259.037 175.768 259.115 175.681 259.225C175.593 259.335 175.546 259.472 175.546 259.612C175.546 259.753 175.593 259.89 175.681 260C175.768 260.11 175.89 260.188 176.027 260.22L181.08 263.142C181.407 263.305 181.766 263.389 182.13 263.389C182.495 263.389 182.854 263.305 183.18 263.142L189.218 259.662C189.354 259.623 189.473 259.539 189.555 259.424C189.637 259.309 189.677 259.169 189.67 259.028C189.662 258.887 189.607 258.752 189.513 258.647C189.419 258.541 189.292 258.471 189.152 258.447L191.416 258.512ZM201.26 252.897L196.207 249.975C195.875 249.812 195.51 249.728 195.141 249.728C194.771 249.728 194.406 249.812 194.074 249.975L185.871 253.39C185.734 253.422 185.612 253.5 185.525 253.61C185.437 253.72 185.39 253.857 185.39 253.997C185.39 254.138 185.437 254.275 185.525 254.385C185.612 254.495 185.734 254.573 185.871 254.605L190.924 257.527C191.25 257.689 191.61 257.774 191.974 257.774C192.338 257.774 192.698 257.689 193.024 257.527L199.062 254.047C199.183 253.998 199.287 253.913 199.357 253.803C199.428 253.692 199.462 253.563 199.455 253.432C199.447 253.301 199.399 253.176 199.317 253.074C199.235 252.972 199.122 252.899 198.996 252.865L201.26 252.897ZM211.104 247.282L206.051 244.36C205.719 244.197 205.354 244.113 204.984 244.113C204.615 244.113 204.25 244.197 203.918 244.36L197.913 247.841C197.776 247.873 197.654 247.95 197.567 248.06C197.479 248.171 197.432 248.307 197.432 248.448C197.432 248.589 197.479 248.725 197.567 248.836C197.654 248.946 197.776 249.023 197.913 249.055L202.966 251.978C203.288 252.156 203.649 252.25 204.016 252.25C204.384 252.25 204.745 252.156 205.066 251.978L211.104 248.497C211.274 248.166 211.305 247.781 211.191 247.427C211.077 247.073 210.828 246.779 210.497 246.609C210.166 246.439 209.782 246.408 209.428 246.522C209.074 246.636 208.78 246.886 208.61 247.217L211.104 247.282ZM220.948 241.667L215.895 238.745C215.563 238.582 215.198 238.498 214.828 238.498C214.459 238.498 214.094 238.582 213.762 238.745L207.757 242.225C207.62 242.258 207.498 242.335 207.411 242.445C207.323 242.556 207.276 242.692 207.276 242.833C207.276 242.974 207.323 243.11 207.411 243.221C207.498 243.331 207.62 243.408 207.757 243.44L212.81 246.363C213.131 246.541 213.493 246.635 213.86 246.635C214.228 246.635 214.589 246.541 214.91 246.363L220.948 242.882C218.913 242.488 218.913 241.963 218.323 241.602L220.948 241.667ZM230.791 236.052L225.738 233.13C225.406 232.967 225.042 232.883 224.672 232.883C224.302 232.883 223.938 232.967 223.605 233.13L214.845 236.446C214.708 236.478 214.585 236.556 214.498 236.666C214.411 236.776 214.363 236.913 214.363 237.054C214.363 237.194 214.411 237.331 214.498 237.441C214.585 237.552 214.708 237.629 214.845 237.661L219.898 240.584C220.225 240.762 220.592 240.855 220.964 240.855C221.337 240.855 221.703 240.762 222.031 240.584L228.035 237.136C228.527 236.873 228.527 236.446 228.035 235.986L230.791 236.052ZM148.76 293.516L143.707 290.594C143.386 290.416 143.024 290.322 142.657 290.322C142.289 290.322 141.928 290.416 141.607 290.594L135.569 293.878C135.451 293.933 135.351 294.022 135.281 294.132C135.211 294.243 135.174 294.371 135.174 294.502C135.174 294.632 135.211 294.761 135.281 294.871C135.351 294.981 135.451 295.07 135.569 295.125L140.655 298.048C140.981 298.21 141.341 298.294 141.705 298.294C142.069 298.294 142.429 298.21 142.755 298.048L148.76 294.567C148.908 294.21 148.908 293.809 148.76 293.452C148.613 293.095 148.329 292.811 147.972 292.663C147.616 292.515 147.215 292.515 146.858 292.662C146.501 292.81 146.217 293.094 146.069 293.451L148.76 293.516ZM158.604 287.901L153.551 284.979C153.229 284.801 152.868 284.707 152.501 284.707C152.133 284.707 151.772 284.801 151.451 284.979L145.413 288.46C144.855 288.788 144.855 289.313 145.413 289.675L150.499 292.597C150.825 292.759 151.185 292.843 151.549 292.843C151.913 292.843 152.273 292.759 152.599 292.597L158.604 289.116C158.773 288.742 158.788 288.315 158.643 287.93C158.498 287.546 158.207 287.234 157.833 287.064C157.458 286.894 157.032 286.88 156.647 287.025C156.263 287.17 155.952 287.461 155.782 287.836L158.604 287.901ZM168.447 282.286L163.394 279.364C163.073 279.186 162.712 279.092 162.344 279.092C161.977 279.092 161.616 279.186 161.294 279.364L155.257 282.845C155.136 282.894 155.033 282.978 154.961 283.086C154.889 283.195 154.85 283.322 154.85 283.452C154.85 283.582 154.889 283.71 154.961 283.818C155.033 283.926 155.136 284.01 155.257 284.059L160.343 286.982C160.669 287.144 161.028 287.228 161.393 287.228C161.757 287.228 162.116 287.144 162.443 286.982L168.447 283.501C168.532 283.307 168.576 283.098 168.58 282.887C168.583 282.676 168.545 282.466 168.468 282.269C168.39 282.072 168.274 281.893 168.127 281.741C167.98 281.589 167.805 281.467 167.611 281.383C167.417 281.299 167.208 281.254 166.997 281.251C166.786 281.247 166.576 281.286 166.379 281.363C166.183 281.441 166.003 281.557 165.852 281.704C165.7 281.851 165.578 282.027 165.494 282.221L168.447 282.286ZM178.291 276.671L173.205 273.749C172.879 273.587 172.52 273.502 172.155 273.502C171.791 273.502 171.432 273.587 171.105 273.749L165.068 277.229C164.947 277.279 164.845 277.363 164.772 277.471C164.7 277.579 164.661 277.707 164.661 277.837C164.661 277.967 164.7 278.094 164.772 278.203C164.845 278.311 164.947 278.395 165.068 278.444L170.154 281.367C170.48 281.529 170.84 281.613 171.204 281.613C171.568 281.613 171.927 281.529 172.254 281.367L178.291 277.886C178.461 277.481 178.463 277.025 178.297 276.619C178.131 276.212 177.81 275.889 177.405 275.719C177.001 275.549 176.545 275.547 176.139 275.713C175.733 275.88 175.409 276.201 175.24 276.606L178.291 276.671ZM166.741 303.696L161.688 300.773C161.367 300.595 161.005 300.502 160.638 300.502C160.271 300.502 159.909 300.595 159.588 300.773L153.551 304.221C152.96 304.583 152.96 305.108 153.551 305.469L158.604 308.392C158.936 308.554 159.301 308.638 159.67 308.638C160.04 308.638 160.405 308.554 160.737 308.392L166.741 304.911C166.911 304.506 166.913 304.05 166.747 303.644C166.581 303.237 166.26 302.913 165.855 302.744C165.451 302.574 164.995 302.572 164.589 302.738C164.183 302.904 163.859 303.225 163.69 303.63L166.741 303.696ZM176.585 298.081L171.532 295.158C171.211 294.98 170.849 294.887 170.482 294.887C170.114 294.887 169.753 294.98 169.432 295.158L163.394 298.606C162.804 298.967 162.804 299.493 163.394 299.854L168.447 302.776C168.78 302.939 169.144 303.023 169.514 303.023C169.884 303.023 170.248 302.939 170.58 302.776L176.585 299.296C176.755 298.873 176.75 298.401 176.571 297.982C176.393 297.563 176.056 297.233 175.633 297.063C175.211 296.893 174.739 296.898 174.321 297.077C173.902 297.255 173.572 297.593 173.402 298.015L176.585 298.081ZM186.429 292.466L181.376 289.543C181.054 289.365 180.693 289.271 180.326 289.271C179.958 289.271 179.597 289.365 179.276 289.543L173.238 293.024C173.101 293.056 172.979 293.133 172.892 293.244C172.804 293.354 172.757 293.491 172.757 293.631C172.757 293.772 172.804 293.909 172.892 294.019C172.979 294.129 173.101 294.207 173.238 294.239L178.291 297.161C178.623 297.324 178.988 297.408 179.358 297.408C179.727 297.408 180.092 297.324 180.424 297.161L186.429 293.681C186.521 293.463 186.57 293.229 186.573 292.992C186.575 292.756 186.531 292.521 186.442 292.301C186.354 292.082 186.223 291.882 186.058 291.713C185.892 291.544 185.695 291.409 185.477 291.316C185.26 291.224 185.026 291.175 184.789 291.172C184.553 291.17 184.318 291.214 184.099 291.303C183.88 291.391 183.68 291.522 183.511 291.688C183.342 291.854 183.207 292.051 183.115 292.269L186.429 292.466ZM196.273 286.851L191.219 283.928C190.898 283.75 190.537 283.656 190.169 283.656C189.802 283.656 189.441 283.75 189.119 283.928L183.082 287.409C182.945 287.441 182.823 287.518 182.736 287.629C182.648 287.739 182.601 287.876 182.601 288.016C182.601 288.157 182.648 288.294 182.736 288.404C182.823 288.514 182.945 288.592 183.082 288.624L188.135 291.546C188.467 291.709 188.832 291.793 189.201 291.793C189.571 291.793 189.936 291.709 190.268 291.546L196.273 288.066C196.442 287.608 196.424 287.102 196.22 286.659C196.017 286.216 195.647 285.871 195.19 285.701C194.733 285.532 194.227 285.55 193.784 285.753C193.341 285.957 192.997 286.328 192.827 286.785L196.273 286.851ZM257.632 251.387L252.579 248.464C252.247 248.302 251.882 248.218 251.513 248.218C251.143 248.218 250.778 248.302 250.446 248.464L241.324 253.751C241.187 253.783 241.065 253.861 240.978 253.971C240.89 254.081 240.843 254.218 240.843 254.359C240.843 254.499 240.89 254.636 240.978 254.746C241.065 254.857 241.187 254.934 241.324 254.966L246.377 257.889C246.699 258.067 247.06 258.16 247.427 258.16C247.795 258.16 248.156 258.067 248.477 257.889L257.632 252.635C254.777 252.208 254.777 251.682 254.187 251.321L257.632 251.387ZM188.398 271.089L183.311 268.167C182.985 268.004 182.626 267.92 182.262 267.92C181.897 267.92 181.538 268.004 181.212 268.167L175.174 271.647C175.054 271.697 174.951 271.781 174.878 271.889C174.806 271.997 174.767 272.124 174.767 272.255C174.767 272.385 174.806 272.512 174.878 272.62C174.951 272.729 175.054 272.813 175.174 272.862L180.26 275.785C180.586 275.947 180.946 276.031 181.31 276.031C181.674 276.031 182.034 275.947 182.36 275.785L188.398 272.304C188.484 272.078 188.525 271.836 188.518 271.594C188.511 271.352 188.456 271.114 188.357 270.893C188.258 270.672 188.116 270.472 187.94 270.306C187.764 270.139 187.557 270.01 187.331 269.923C187.105 269.837 186.864 269.796 186.622 269.803C186.38 269.81 186.142 269.865 185.921 269.964C185.7 270.063 185.501 270.205 185.334 270.381C185.168 270.557 185.038 270.764 184.952 270.99L188.398 271.089ZM198.241 265.474L193.155 262.551C192.829 262.389 192.47 262.305 192.105 262.305C191.741 262.305 191.382 262.389 191.055 262.551L181.441 265.999C181.321 266.049 181.218 266.133 181.146 266.241C181.073 266.349 181.034 266.477 181.034 266.607C181.034 266.737 181.073 266.864 181.146 266.972C181.218 267.081 181.321 267.165 181.441 267.214L186.527 270.137C186.854 270.299 187.213 270.383 187.577 270.383C187.942 270.383 188.301 270.299 188.627 270.137L194.665 266.656C194.81 266.623 194.939 266.542 195.032 266.425C195.125 266.309 195.175 266.165 195.175 266.016C195.175 265.867 195.125 265.722 195.032 265.606C194.939 265.49 194.81 265.408 194.665 265.375L198.241 265.474ZM208.085 259.859L202.999 256.936C202.673 256.774 202.314 256.69 201.949 256.69C201.585 256.69 201.226 256.774 200.899 256.936L194.894 260.417C194.757 260.449 194.635 260.527 194.548 260.637C194.461 260.747 194.413 260.884 194.413 261.024C194.413 261.165 194.461 261.302 194.548 261.412C194.635 261.522 194.757 261.6 194.894 261.632L199.948 264.554C200.269 264.733 200.63 264.826 200.998 264.826C201.365 264.826 201.726 264.733 202.048 264.554L208.085 261.074C208.259 260.582 208.231 260.041 208.006 259.57C207.781 259.098 207.379 258.736 206.888 258.562C206.396 258.388 205.855 258.416 205.384 258.641C204.914 258.866 204.551 259.268 204.377 259.76L208.085 259.859ZM217.929 254.244L212.843 251.321C212.516 251.159 212.157 251.075 211.793 251.075C211.429 251.075 211.069 251.159 210.743 251.321L204.738 254.802C204.601 254.834 204.479 254.911 204.392 255.022C204.304 255.132 204.257 255.269 204.257 255.409C204.257 255.55 204.304 255.687 204.392 255.797C204.479 255.907 204.601 255.985 204.738 256.017L209.791 258.939C210.113 259.118 210.474 259.211 210.841 259.211C211.209 259.211 211.57 259.118 211.891 258.939L217.929 255.459C214.648 255.032 214.648 254.506 214.09 254.145L217.929 254.244ZM227.773 248.629L222.687 245.706C222.36 245.544 222.001 245.46 221.637 245.46C221.272 245.46 220.913 245.544 220.587 245.706L214.582 249.187C214.445 249.219 214.323 249.296 214.236 249.407C214.148 249.517 214.101 249.654 214.101 249.794C214.101 249.935 214.148 250.072 214.236 250.182C214.323 250.292 214.445 250.37 214.582 250.402L219.635 253.324C219.956 253.503 220.318 253.596 220.685 253.596C221.052 253.596 221.414 253.503 221.735 253.324L227.773 249.876C227.951 249.35 227.913 248.773 227.667 248.274C227.421 247.776 226.987 247.395 226.46 247.217C225.934 247.038 225.358 247.076 224.859 247.323C224.361 247.569 223.981 248.003 223.802 248.53L227.773 248.629ZM240.602 241.208L235.549 238.285C235.217 238.123 234.852 238.038 234.483 238.038C234.113 238.038 233.748 238.123 233.416 238.285L224.295 243.572C223.704 243.933 223.704 244.458 224.295 244.787L229.348 247.742C229.674 247.904 230.033 247.988 230.398 247.988C230.762 247.988 231.121 247.904 231.448 247.742L240.602 242.455C237.223 241.996 237.223 241.47 236.632 241.109L240.602 241.208ZM162.246 296.8L157.16 293.878C156.834 293.716 156.474 293.631 156.11 293.631C155.746 293.631 155.386 293.716 155.06 293.878L145.905 299.164C145.768 299.196 145.646 299.274 145.559 299.384C145.471 299.495 145.424 299.631 145.424 299.772C145.424 299.913 145.471 300.049 145.559 300.16C145.646 300.27 145.768 300.347 145.905 300.379L150.958 303.302C151.286 303.48 151.652 303.573 152.025 303.573C152.397 303.573 152.764 303.48 153.091 303.302L162.246 298.015C162.42 297.488 162.378 296.914 162.129 296.418C161.879 295.922 161.444 295.546 160.917 295.372C160.391 295.198 159.816 295.24 159.321 295.489C158.826 295.739 158.45 296.175 158.276 296.702L162.246 296.8ZM172.09 291.185L167.004 288.263C166.677 288.101 166.318 288.016 165.954 288.016C165.589 288.016 165.23 288.101 164.904 288.263L158.899 291.743C158.762 291.775 158.64 291.853 158.553 291.963C158.465 292.073 158.418 292.21 158.418 292.351C158.418 292.491 158.465 292.628 158.553 292.738C158.64 292.849 158.762 292.926 158.899 292.958L163.952 295.881C164.273 296.059 164.635 296.153 165.002 296.153C165.37 296.153 165.731 296.059 166.052 295.881L172.09 292.4C172.264 291.856 172.215 291.265 171.953 290.757C171.692 290.248 171.239 289.865 170.695 289.691C170.151 289.517 169.56 289.566 169.053 289.828C168.545 290.089 168.162 290.542 167.988 291.087L172.09 291.185ZM181.933 285.57L172.746 282.418C172.42 282.256 172.06 282.171 171.696 282.171C171.332 282.171 170.972 282.256 170.646 282.418L164.641 285.898C164.504 285.93 164.382 286.008 164.295 286.118C164.207 286.228 164.16 286.365 164.16 286.506C164.16 286.647 164.207 286.783 164.295 286.894C164.382 287.004 164.504 287.081 164.641 287.113L169.694 290.036C170.016 290.214 170.377 290.308 170.744 290.308C171.112 290.308 171.473 290.214 171.794 290.036L177.832 286.588C177.913 286.514 177.976 286.422 178.015 286.319C178.054 286.216 178.067 286.105 178.054 285.996C178.041 285.887 178.002 285.782 177.941 285.691C177.879 285.599 177.797 285.524 177.701 285.471L181.933 285.57ZM191.777 279.955L186.691 277.032C186.365 276.87 186.006 276.786 185.641 276.786C185.277 276.786 184.918 276.87 184.591 277.032L178.587 280.513C178.45 280.545 178.328 280.623 178.24 280.733C178.153 280.843 178.105 280.98 178.105 281.121C178.105 281.261 178.153 281.398 178.24 281.508C178.328 281.619 178.45 281.696 178.587 281.728L183.64 284.651C183.961 284.829 184.322 284.922 184.69 284.922C185.057 284.922 185.418 284.829 185.74 284.651L191.777 281.367C191.977 280.788 191.94 280.153 191.672 279.602C191.404 279.05 190.929 278.628 190.35 278.428C189.771 278.228 189.137 278.266 188.586 278.534C188.035 278.801 187.613 279.277 187.413 279.856L191.777 279.955ZM201.621 274.34L196.535 271.417C196.209 271.255 195.849 271.171 195.485 271.171C195.121 271.171 194.761 271.255 194.435 271.417L188.43 274.898C187.84 275.259 187.84 275.785 188.43 276.146L189.152 279.134C189.479 279.296 189.838 279.38 190.202 279.38C190.567 279.38 190.926 279.296 191.252 279.134L197.29 275.653C197.477 275.632 197.648 275.536 197.765 275.388C197.881 275.241 197.935 275.052 197.913 274.865C197.891 274.678 197.796 274.507 197.649 274.39C197.501 274.273 197.313 274.22 197.126 274.241L201.621 274.34ZM241.652 258.742L236.599 255.787C236.273 255.625 235.914 255.541 235.549 255.541C235.185 255.541 234.826 255.625 234.499 255.787L189.513 281.794C189.376 281.826 189.254 281.903 189.167 282.014C189.079 282.124 189.032 282.26 189.032 282.401C189.032 282.542 189.079 282.679 189.167 282.789C189.254 282.899 189.376 282.977 189.513 283.009L194.566 285.931C194.888 286.109 195.249 286.203 195.616 286.203C195.984 286.203 196.345 286.109 196.666 285.931L241.652 259.957C242.145 259.596 242.145 259.071 241.652 258.742ZM206.937 268.593L201.851 265.671C201.529 265.493 201.168 265.399 200.801 265.399C200.433 265.399 200.072 265.493 199.751 265.671L193.648 269.283C193.057 269.644 193.057 270.17 193.648 270.531L198.701 273.453C199.027 273.615 199.386 273.7 199.751 273.7C200.115 273.7 200.474 273.615 200.801 273.453L206.838 269.972C207.429 269.513 207.429 268.987 206.838 268.659L206.937 268.593ZM216.78 262.978L211.727 260.056C211.4 259.878 211.033 259.784 210.661 259.784C210.288 259.784 209.922 259.878 209.594 260.056L203.59 263.504C202.999 263.865 202.999 264.39 203.59 264.751L208.643 267.674C208.969 267.836 209.329 267.92 209.693 267.92C210.057 267.92 210.417 267.836 210.743 267.674L216.78 264.193C216.89 264.127 216.976 264.028 217.027 263.911C217.078 263.794 217.092 263.664 217.067 263.538C217.042 263.413 216.979 263.298 216.887 263.21C216.794 263.121 216.677 263.063 216.551 263.044L216.78 262.978ZM226.624 257.363L221.571 254.441C221.244 254.263 220.877 254.169 220.505 254.169C220.132 254.169 219.765 254.263 219.438 254.441L213.434 257.921C213.297 257.954 213.175 258.031 213.087 258.141C213 258.251 212.952 258.388 212.952 258.529C212.952 258.67 213 258.806 213.087 258.917C213.175 259.027 213.297 259.104 213.434 259.136L218.487 262.059C218.813 262.221 219.172 262.305 219.537 262.305C219.901 262.305 220.26 262.221 220.587 262.059L226.624 258.578C226.74 258.504 226.828 258.395 226.875 258.266C226.922 258.137 226.925 257.996 226.884 257.865C226.842 257.734 226.76 257.621 226.647 257.542C226.535 257.463 226.4 257.423 226.263 257.429L226.624 257.363ZM236.468 251.748L231.415 248.826C231.088 248.647 230.721 248.554 230.348 248.554C229.976 248.554 229.609 248.647 229.282 248.826L223.277 252.306C223.14 252.338 223.018 252.416 222.931 252.526C222.844 252.636 222.796 252.773 222.796 252.914C222.796 253.055 222.844 253.191 222.931 253.301C223.018 253.412 223.14 253.489 223.277 253.521L228.33 256.444C228.657 256.606 229.016 256.69 229.381 256.69C229.745 256.69 230.104 256.606 230.431 256.444L236.468 252.963C236.62 252.898 236.74 252.775 236.802 252.621C236.864 252.467 236.861 252.295 236.796 252.142C236.731 251.99 236.608 251.87 236.454 251.808C236.3 251.746 236.128 251.748 235.976 251.814L236.468 251.748ZM246.312 246.133L241.259 243.211C240.927 243.048 240.562 242.964 240.192 242.964C239.823 242.964 239.458 243.048 239.126 243.211L233.121 246.691C232.984 246.723 232.862 246.801 232.775 246.911C232.687 247.021 232.64 247.158 232.64 247.299C232.64 247.439 232.687 247.576 232.775 247.686C232.862 247.797 232.984 247.874 233.121 247.906L238.174 250.829C238.501 250.991 238.86 251.075 239.224 251.075C239.589 251.075 239.948 250.991 240.274 250.829L246.312 247.348C246.418 247.251 246.487 247.121 246.508 246.979C246.53 246.837 246.501 246.692 246.428 246.568C246.354 246.445 246.241 246.351 246.106 246.301C245.972 246.252 245.824 246.25 245.688 246.297L246.312 246.133ZM229.512 225.183L224.459 222.261C224.127 222.098 223.762 222.014 223.392 222.014C223.023 222.014 222.658 222.098 222.326 222.261L216.321 225.741C215.731 226.103 215.731 226.628 216.321 226.956L221.374 229.912C221.701 230.074 222.06 230.158 222.424 230.158C222.789 230.158 223.148 230.074 223.474 229.912L229.512 226.431C229.479 226.135 229.479 225.61 228.888 225.249L229.512 225.183ZM239.355 219.568L234.302 216.646C233.97 216.483 233.606 216.399 233.236 216.399C232.866 216.399 232.502 216.483 232.17 216.646L226.165 220.126C225.574 220.488 225.574 221.013 226.165 221.374L231.218 224.297C231.544 224.459 231.904 224.543 232.268 224.543C232.632 224.543 232.992 224.459 233.318 224.297L239.355 220.816C239.191 220.52 239.191 220.028 238.601 219.634L239.355 219.568ZM249.199 213.986L244.146 211.063C243.819 210.885 243.452 210.792 243.08 210.792C242.707 210.792 242.341 210.885 242.013 211.063L236.009 214.347C235.418 214.708 235.418 215.234 236.009 215.595L241.062 218.517C241.388 218.679 241.748 218.764 242.112 218.764C242.476 218.764 242.835 218.679 243.162 218.517L249.199 215.037C249.264 214.972 249.315 214.895 249.35 214.811C249.385 214.726 249.403 214.636 249.403 214.544C249.403 214.453 249.385 214.362 249.35 214.277C249.315 214.193 249.264 214.116 249.199 214.051C249.135 213.987 249.058 213.935 248.974 213.9C248.889 213.865 248.799 213.847 248.707 213.847C248.616 213.847 248.525 213.865 248.441 213.9C248.356 213.935 248.28 213.987 248.215 214.051L249.199 213.986ZM258.059 219.076L253.006 216.153C252.674 215.991 252.309 215.906 251.939 215.906C251.57 215.906 251.205 215.991 250.873 216.153L244.868 219.634C244.277 219.995 244.277 220.52 244.868 220.882L249.921 223.804C250.248 223.966 250.607 224.05 250.971 224.05C251.336 224.05 251.695 223.966 252.021 223.804L258.059 220.323C257.763 220.028 257.763 219.502 257.173 219.141L258.059 219.076Z" fill="#282B42"/>
<g style="mix-blend-mode:multiply" opacity="0.2">
<path d="M283.128 281.761L238.371 307.538C237.808 307.829 237.184 307.98 236.55 307.98C235.916 307.98 235.292 307.829 234.729 307.538L205.198 290.463C204.181 289.872 204.181 288.919 205.198 288.361L249.823 262.551C250.39 262.275 251.013 262.132 251.644 262.132C252.275 262.132 252.897 262.275 253.465 262.551L282.996 279.659C284.309 280.25 284.309 281.17 283.128 281.761Z" fill="#B4BFFB"/>
</g>
<g style="mix-blend-mode:multiply" opacity="0.6">
<path d="M205.296 288.985L249.921 263.208C250.484 262.917 251.109 262.765 251.742 262.765C252.376 262.765 253 262.917 253.563 263.208L283.095 280.283C283.425 280.447 283.683 280.728 283.816 281.071C283.816 280.612 283.817 280.119 283.095 279.758L253.563 262.65C252.996 262.374 252.373 262.231 251.742 262.231C251.111 262.231 250.489 262.374 249.921 262.65L205.296 288.46C204.673 288.821 204.443 289.313 204.574 289.773C204.708 289.429 204.965 289.148 205.296 288.985Z" fill="#7FA3F0"/>
</g>
<g style="mix-blend-mode:multiply" opacity="0.6">
<path d="M234.86 207.189L108.433 280.25H108.237L112.535 282.746L238.962 209.717H239.159L234.86 207.189ZM112.535 282.713L108.794 280.513L234.86 207.681L238.634 209.848L112.535 282.713Z" fill="#7FA3F0"/>
</g>
<path d="M249.101 226.135L242.538 222.261C242.129 222.065 241.68 221.964 241.226 221.964C240.772 221.964 240.323 222.065 239.913 222.261L224.656 231.094C224.489 231.159 224.349 231.279 224.26 231.434C224.17 231.589 224.136 231.77 224.163 231.948C224.146 231.977 224.137 232.011 224.137 232.046C224.137 232.081 224.146 232.115 224.163 232.145C224.146 232.174 224.137 232.208 224.137 232.243C224.137 232.278 224.146 232.312 224.163 232.342C224.163 232.67 224.327 232.965 224.656 233.228L237.945 240.879C238.35 241.089 238.8 241.199 239.257 241.199C239.714 241.199 240.164 241.089 240.57 240.879L265.868 226.3C266.031 226.218 266.168 226.091 266.261 225.934C266.354 225.776 266.4 225.596 266.393 225.413V225.019C266.4 224.836 266.354 224.656 266.261 224.498C266.168 224.341 266.031 224.214 265.868 224.132L260.913 221.276C260.642 221.147 260.345 221.08 260.044 221.08C259.743 221.08 259.446 221.147 259.175 221.276L250.676 226.135C250.434 226.265 250.163 226.332 249.888 226.332C249.614 226.332 249.343 226.265 249.101 226.135Z" fill="#191B2A"/>
<path d="M265.77 223.87L260.815 221.013C260.543 220.884 260.246 220.818 259.945 220.818C259.645 220.818 259.348 220.884 259.076 221.013L250.577 225.873C250.35 225.993 250.097 226.057 249.839 226.057C249.582 226.057 249.328 225.993 249.101 225.873L242.538 222.031C242.133 221.821 241.683 221.711 241.226 221.711C240.769 221.711 240.319 221.821 239.913 222.031L224.656 230.831C224.497 230.889 224.36 230.993 224.264 231.132C224.167 231.27 224.115 231.434 224.115 231.603C224.115 231.771 224.167 231.936 224.264 232.074C224.36 232.212 224.497 232.317 224.656 232.374L237.945 240.058C238.355 240.254 238.803 240.355 239.257 240.355C239.711 240.355 240.16 240.254 240.57 240.058L265.868 225.446C266.036 225.386 266.181 225.274 266.279 225.125C266.378 224.976 266.425 224.799 266.414 224.621C266.403 224.442 266.334 224.273 266.217 224.137C266.101 224.002 265.944 223.908 265.77 223.87Z" fill="#282B42"/>
<path d="M169.465 323.923L174.682 326.944C175.273 327.273 175.765 326.944 175.765 326.452C175.73 326.098 175.611 325.758 175.417 325.461C175.222 325.163 174.959 324.918 174.649 324.744L169.465 321.822C168.874 321.493 168.382 321.822 168.382 322.281C168.427 322.619 168.548 322.942 168.736 323.226C168.923 323.51 169.173 323.749 169.465 323.923Z" fill="#191B2A"/>
<mask id="mask1_2_179" style="mask-type:luminance" maskUnits="userSpaceOnUse" x="168" y="321" width="8" height="7">
<path d="M169.465 323.923L174.682 326.944C175.273 327.273 175.765 326.944 175.765 326.452C175.73 326.098 175.611 325.758 175.417 325.461C175.222 325.163 174.959 324.918 174.649 324.744L169.465 321.822C168.874 321.493 168.382 321.822 168.382 322.281C168.427 322.619 168.549 322.942 168.736 323.226C168.923 323.51 169.173 323.749 169.465 323.923Z" fill="white"/>
</mask>
<g mask="url(#mask1_2_179)">
<path d="M174.091 326.255L174.813 326.649L177.372 325.171L176.651 324.744L174.091 326.255ZM172.483 325.335L173.205 325.729L175.765 324.252L175.043 323.825L172.483 325.335ZM170.909 324.416L171.63 324.81L174.19 323.332L173.468 322.905L170.909 324.416ZM169.301 323.496L170.023 323.89L172.582 322.413L171.86 321.986L169.301 323.496Z" fill="#AD4D34"/>
</g>
<g opacity="0.3">
<g style="mix-blend-mode:screen">
<path d="M233.22 181.904L108.105 253.718L94.3239 163.056L219.438 91.2092L233.22 181.904Z" fill="#2F9BD4"/>
</g>
<path d="M219.471 91.5047L94.3895 163.319L93.5364 157.704L218.651 85.8896L219.471 91.5047Z" fill="#1868D8"/>
<path d="M210.316 95.4123L207.134 97.2183L206.674 94.066L209.824 92.2599L210.316 95.4123Z" fill="#0060BC"/>
<path d="M214.221 93.1465L211.071 94.9854L210.579 91.8331L213.729 90.027L214.221 93.1465Z" fill="#0060BC"/>
<path d="M211.137 91.9644L211.465 94.0988L213.631 92.8839L213.302 90.7166L211.137 91.9644ZM213.204 92.7197L211.793 93.5406L211.563 92.1286L213.007 91.3077L213.204 92.7197Z" fill="#B2B8FF"/>
<path d="M218.159 90.9137L214.976 92.7197L214.516 89.5674L217.666 87.7614L218.159 90.9137Z" fill="#0060BC"/>
<path d="M215.14 90.0599L216.124 90.4211L215.402 91.7345L215.698 91.8659L216.42 90.5196L217.404 90.8808L217.634 90.4539L216.649 90.0927L217.371 88.7792L217.043 88.6479L216.354 89.9942L215.37 89.633L215.14 90.0599Z" fill="#B2B8FF"/>
<path d="M209.66 95.2153L207.659 96.3974L207.593 96.0033L209.627 94.8541L209.66 95.2153Z" fill="#B2B8FF"/>
</g>
<g opacity="0.6">
<g style="mix-blend-mode:screen">
<path d="M251.332 179.507L123.166 253.718L113.65 159.707L241.849 85.4627L251.332 179.507Z" fill="#2F9BD4"/>
</g>
<path d="M241.882 85.7911L113.683 160.002L113.093 154.19L241.291 79.9461L241.882 85.7911Z" fill="#1868D8"/>
<path d="M232.498 89.7972L229.249 91.7017L228.921 88.4509L232.17 86.5463L232.498 89.7972Z" fill="#0060BC"/>
<path d="M236.534 87.4657L233.285 89.3703L232.957 86.1194L236.206 84.2149L236.534 87.4657Z" fill="#0060BC"/>
<path d="M233.515 86.3165L233.745 88.5494L235.943 87.2359L235.713 85.0358L233.515 86.3165ZM235.549 87.1046L234.073 87.9255V86.4807L235.516 85.6269L235.549 87.1046Z" fill="#B2B8FF"/>
<path d="M240.57 85.1343L237.321 87.0389L236.993 83.7552L240.241 81.8835L240.57 85.1343Z" fill="#0060BC"/>
<path d="M237.584 84.2806L238.535 84.6418L237.781 86.021L238.076 86.1195L238.863 84.7403L239.815 85.1344L240.077 84.6747L239.093 84.3135L239.881 82.9343L239.585 82.8358L238.798 84.1821L237.846 83.8209L237.584 84.2806Z" fill="#B2B8FF"/>
<path d="M231.874 89.6329L229.807 90.8479L229.774 90.421L231.841 89.2389L231.874 89.6329Z" fill="#B2B8FF"/>
</g>
<path opacity="0.2" d="M272.07 176.421L137.046 254.441V155.142L272.07 77.1222V176.421Z" fill="#6D8EFF"/>
<g style="mix-blend-mode:screen">
<path d="M272.07 176.421L137.046 254.441V155.142L272.07 77.1222V176.421Z" fill="#2F9BD4"/>
</g>
<path d="M272.07 77.4178L137.046 155.471V149.297L272.07 71.2773V77.4178Z" fill="#1868D8"/>
<path d="M262.291 81.6865L258.846 83.6895V80.2417L262.291 78.2386V81.6865Z" fill="#0060BC"/>
<path d="M266.557 79.2237L263.112 81.2268V77.7789L266.557 75.7759V79.2237Z" fill="#0060BC"/>
<path d="M263.67 78.0088V80.3402L265.999 78.9939V76.6296L263.67 78.0088ZM265.606 78.8297L264.063 79.7163V78.173L265.606 77.2864V78.8297Z" fill="#B2B8FF"/>
<path d="M270.823 76.761L267.378 78.764V75.3162L270.823 73.3131V76.761Z" fill="#0060BC"/>
<path d="M267.968 75.8416L268.887 76.2356L267.968 77.6805L268.263 77.8118L269.149 76.367L270.068 76.7282L270.363 76.2685L269.445 75.8744L270.363 74.4296L270.068 74.2983L269.149 75.7759L268.263 75.3819L267.968 75.8416Z" fill="#B2B8FF"/>
<path d="M261.701 81.4895L259.502 82.7701V82.3433L261.701 81.0626V81.4895Z" fill="#B2B8FF"/>
<g opacity="0.8">
<g opacity="0.3">
<path d="M167.725 175.107L155.191 182.331V177.012L166.643 170.444C167.233 170.083 167.725 170.444 167.725 170.904V175.107Z" fill="#EB5A46"/>
<path d="M153.452 177.176V182.791L166.38 175.337V169.722L153.452 177.176Z" fill="#FFEFE8"/>
<path d="M158.079 177.34C157.991 177.412 157.881 177.451 157.767 177.451C157.653 177.451 157.543 177.412 157.455 177.34L155.979 175.862C155.683 175.567 155.224 175.6 154.699 175.862L150.171 178.489C149.824 178.69 149.531 178.971 149.314 179.308C149.097 179.644 148.964 180.028 148.924 180.427V192.084C148.924 192.609 149.35 192.806 149.908 192.511L166.774 182.66C167.037 182.497 167.259 182.276 167.424 182.014C167.589 181.753 167.692 181.457 167.726 181.149V171.692L158.079 177.34Z" fill="#F55E0F"/>
</g>
<g opacity="0.8">
<path d="M200.177 179.442L177.569 192.576V182.955L198.209 171.003C199.291 170.379 200.177 170.773 200.177 171.856V179.442Z" fill="#EB5A46"/>
<path d="M174.387 183.185V193.332L197.716 179.868V169.722L174.387 183.185Z" fill="#FFEFE8"/>
<path d="M182.754 183.382C182.575 183.497 182.36 183.544 182.149 183.514C181.938 183.484 181.745 183.379 181.605 183.218L178.948 180.591C178.455 180.065 177.569 180.098 176.651 180.591L168.447 185.319C167.828 185.699 167.305 186.217 166.918 186.832C166.531 187.447 166.291 188.143 166.216 188.866V209.947C166.216 210.899 167.004 211.228 167.955 210.669L198.438 193.069C198.92 192.781 199.328 192.385 199.629 191.912C199.931 191.439 200.119 190.902 200.177 190.343V173.268L182.754 183.382Z" fill="#F55E0F"/>
</g>
<path d="M254.22 148.477L210.119 174.056V155.274L250.38 131.992C252.48 130.778 254.22 131.5 254.22 133.601V148.477Z" fill="#EB5A46"/>
<path d="M203.951 155.766V175.534L249.429 149.265V129.497L203.951 155.766Z" fill="#FFEFE8"/>
<path d="M220.226 156.127C219.875 156.338 219.464 156.424 219.058 156.37C218.653 156.317 218.278 156.127 217.994 155.832L212.843 150.677C211.858 149.691 210.185 149.724 208.38 150.677L192.433 160.002C191.22 160.725 190.193 161.722 189.435 162.914C188.677 164.106 188.21 165.459 188.069 166.865V207.977C188.069 209.848 189.579 210.472 191.351 209.421L250.774 175.074C251.696 174.503 252.472 173.725 253.042 172.802C253.611 171.878 253.958 170.835 254.056 169.755V136.524L220.226 156.127Z" fill="#F55E0F"/>
</g>
<g style="mix-blend-mode:screen">
<path d="M285.49 59.1277L268.723 39.754L251.988 78.5013L260.749 73.4445V99.7139L276.729 90.4539V64.1845L285.49 59.1277Z" fill="#8493FF"/>
</g>
<g style="mix-blend-mode:screen">
<path d="M285.424 164.008L268.657 202.723L251.89 183.382L260.684 178.292V157.736L276.663 148.509V169.065L285.424 164.008Z" fill="#8493FF"/>
</g>
<path d="M296.778 105.263L237.715 139.446V114.228L291.725 83.0328C294.579 81.391 296.876 82.3433 296.876 85.2001L296.778 105.263Z" fill="#EB5A46"/>
<path d="M229.348 115.049V141.581L290.346 106.347V79.8148L229.348 115.049Z" fill="#FFEFE8"/>
<path d="M251.201 115.541C250.723 115.813 250.17 115.921 249.625 115.85C249.081 115.779 248.574 115.532 248.182 115.147L241.259 108.383C239.946 107.069 237.682 107.135 235.254 108.383L213.827 120.795C212.202 121.763 210.827 123.099 209.813 124.696C208.798 126.293 208.173 128.106 207.987 129.989V185.155C207.987 187.651 210.021 188.439 212.515 187.06L292.249 141.088C293.508 140.337 294.573 139.301 295.359 138.063C296.145 136.826 296.631 135.422 296.778 133.963V89.2061L251.201 115.541Z" fill="#F55E0F"/>
<g style="mix-blend-mode:screen">
<path d="M182.59 77.3849C180.076 77.4041 177.6 76.7705 175.404 75.546C170.252 72.5579 167.397 66.3517 167.365 58.044C167.365 41.0346 179.308 20.2489 194.107 11.7114C201.391 7.50827 208.249 6.85156 213.434 9.8397C218.618 12.8278 221.473 19.034 221.473 27.3417C221.473 44.3511 209.562 65.1039 194.763 73.6743C191.097 75.9494 186.901 77.2284 182.59 77.3849ZM206.248 8.98591C202.122 9.15565 198.109 10.3885 194.599 12.5652C180.096 20.9714 168.349 41.363 168.349 58.044C168.349 65.9577 171.04 71.8683 175.896 74.6594C180.752 77.4505 187.282 76.8267 194.238 72.7878C208.741 64.4144 220.488 44.0228 220.488 27.3417C220.488 19.3952 217.798 13.4846 212.941 10.6934C210.854 9.50753 208.482 8.91693 206.083 8.98591H206.248Z" fill="#8493FF"/>
<path d="M189.579 145.685C188.233 146.473 187.118 145.685 187.118 144.273C187.172 143.425 187.422 142.6 187.849 141.865C188.276 141.13 188.868 140.504 189.579 140.037C190.924 139.249 192.04 140.037 192.04 141.449C191.994 142.3 191.746 143.127 191.319 143.864C190.891 144.6 190.295 145.224 189.579 145.685Z" fill="#8493FF"/>
<path d="M194.14 49.2767C197.093 47.5692 199.488 48.8827 199.488 52.1992C199.378 54.0221 198.839 55.7931 197.916 57.3681C196.992 58.9431 195.709 60.2773 194.173 61.2621C191.22 62.9696 188.824 61.689 188.791 58.3725C188.904 56.5458 189.444 54.7711 190.367 53.1913C191.29 51.6114 192.571 50.2706 194.107 49.2767H194.14Z" fill="#8493FF"/>
<path d="M194.074 35.4852C200.177 31.9389 205.526 32.4642 208.512 36.1748C208.715 36.5057 208.822 36.8865 208.822 37.2748C208.822 37.6632 208.715 38.0439 208.512 38.3748C208.259 38.8191 207.898 39.192 207.462 39.4585C207.002 39.7212 206.543 39.754 206.28 39.4585C203.786 36.1748 199.357 35.8464 194.271 38.7689C188.846 42.2328 184.654 47.3242 182.294 53.3156C182.067 53.9123 181.652 54.4192 181.113 54.7604C180.957 54.8466 180.782 54.8919 180.604 54.8919C180.427 54.8919 180.251 54.8466 180.096 54.7604C179.571 54.4977 179.505 53.6768 179.866 52.7902C182.67 45.6726 187.641 39.6184 194.074 35.4852Z" fill="#8493FF"/>
<path d="M194.041 28.9178C201.752 24.4849 208.512 24.8461 212.646 28.9178C212.867 29.248 212.986 29.6366 212.986 30.0343C212.986 30.4319 212.867 30.8205 212.646 31.1507C212.414 31.5993 212.062 31.9744 211.629 32.2343C211.463 32.3733 211.254 32.4495 211.038 32.4495C210.822 32.4495 210.613 32.3733 210.448 32.2343C206.871 28.5894 200.932 28.2611 194.238 32.2343C187.067 36.7465 181.419 43.3141 178.029 51.0826C177.772 51.6444 177.363 52.1224 176.847 52.4618C176.698 52.5482 176.528 52.5937 176.355 52.5937C176.182 52.5937 176.013 52.5482 175.863 52.4618C175.338 52.1662 175.272 51.2796 175.863 50.3602C179.689 41.5825 186.011 34.1254 194.041 28.9178Z" fill="#8493FF"/>
<path d="M194.14 41.9868C198.701 39.327 202.605 40.2465 204.312 43.6943C204.426 44.0329 204.46 44.3939 204.408 44.7477C204.357 45.1016 204.223 45.4382 204.016 45.7302C203.776 46.1532 203.438 46.5133 203.032 46.781C202.474 47.1094 201.949 47.0765 201.72 46.5511C200.44 43.957 197.552 43.2674 194.14 45.2705C190.489 47.5994 187.798 51.1664 186.56 55.3185C186.363 56.0464 185.893 56.6699 185.248 57.0589C185.098 57.1453 184.928 57.1908 184.755 57.1908C184.583 57.1908 184.413 57.1453 184.263 57.0589C183.837 56.829 183.705 56.1723 183.935 55.3842C185.637 49.8478 189.225 45.0837 194.074 41.9211L194.14 41.9868Z" fill="#8493FF"/>
<path d="M189.579 143.354C189.448 143.354 189.323 143.302 189.231 143.21C189.138 143.117 189.087 142.992 189.087 142.861V75.546C189.087 75.4154 189.138 75.2901 189.231 75.1977C189.323 75.1053 189.448 75.0535 189.579 75.0535C189.709 75.0535 189.835 75.1053 189.927 75.1977C190.019 75.2901 190.071 75.4154 190.071 75.546V142.861C190.071 142.992 190.019 143.117 189.927 143.21C189.835 143.302 189.709 143.354 189.579 143.354Z" fill="#8493FF"/>
</g>
</g>
<defs>
<radialGradient id="paint0_radial_2_179" cx="0" cy="0" r="1" gradientUnits="userSpaceOnUse" gradientTransform="translate(298.517 262.007) rotate(-30.132) scale(98.4904 85.5213)">
<stop stop-color="#FF9A40"/>
<stop offset="0.22" stop-color="#3252FF"/>
<stop offset="0.24" stop-color="#2D49E3"/>
<stop offset="0.29" stop-color="#233AB4"/>
<stop offset="0.35" stop-color="#1B2C89"/>
<stop offset="0.41" stop-color="#142064"/>
<stop offset="0.47" stop-color="#0E1645"/>
<stop offset="0.54" stop-color="#090E2C"/>
<stop offset="0.61" stop-color="#050818"/>
<stop offset="0.7" stop-color="#02030A"/>
<stop offset="0.8" stop-color="#000102"/>
<stop offset="1"/>
</radialGradient>
<linearGradient id="paint1_linear_2_179" x1="73.8817" y1="122.995" x2="205.92" y2="122.995" gradientUnits="userSpaceOnUse">
<stop stop-color="#347BCE"/>
<stop offset="1" stop-color="#7FA3F0"/>
</linearGradient>
<linearGradient id="paint2_linear_2_179" x1="71.7817" y1="163.22" x2="74.8331" y2="163.22" gradientUnits="userSpaceOnUse">
<stop stop-color="#347BCE"/>
<stop offset="1" stop-color="#7FA3F0"/>
</linearGradient>
<linearGradient id="paint3_linear_2_179" x1="194.829" y1="300.15" x2="203.984" y2="300.15" gradientUnits="userSpaceOnUse">
<stop stop-color="#347BCE"/>
<stop offset="1" stop-color="#7FA3F0"/>
</linearGradient>
<linearGradient id="paint4_linear_2_179" x1="103.741" y1="270.925" x2="308.984" y2="270.925" gradientUnits="userSpaceOnUse">
<stop stop-color="#A0AEFF"/>
<stop offset="0.46" stop-color="#BAC0FF"/>
<stop offset="1" stop-color="#D3D7FF"/>
</linearGradient>
</defs>
</svg>
