<svg width="13" height="13" viewBox="0 0 13 13" fill="none" xmlns="http://www.w3.org/2000/svg">
<path opacity="0.5" d="M9.24172 1.50017C9.86545 0.876449 10.8767 0.87645 11.5004 1.50017C12.1242 2.1239 12.1242 3.13516 11.5004 3.75888L8.92801 6.3313L11.6887 9.09194C12.3817 9.78497 12.3817 10.9086 11.6887 11.6016C10.9956 12.2946 9.87201 12.2946 9.17898 11.6016L6.41834 8.84097L3.84592 11.4134C3.2222 12.0371 2.21094 12.0371 1.58721 11.4134C0.96349 10.7897 0.96349 9.7784 1.58721 9.15468L4.15963 6.58226L1.39899 3.82162C0.705962 3.1286 0.705961 2.00498 1.39899 1.31195C2.09202 0.618921 3.21564 0.618922 3.90866 1.31195L6.6693 4.07259L9.24172 1.50017Z" fill="#1F1C15"/>
</svg>
